M48
;DRILL file {KiCad 4.0.2+dfsg1-stable} date Fri 20 May 2016 01:25:18 PM COT
;FORMAT={-:-/ absolute / metric / decimal}
FMAT,2
METRIC,TZ
T1C0.635
T2C0.800
T3C0.813
T4C1.001
T5C1.016
%
G90
G05
M71
T1
X32.893Y-38.989
X41.148Y-30.099
X42.672Y-43.815
X45.212Y-45.212
X45.339Y-49.149
X50.927Y-44.196
X53.213Y-44.323
X53.848Y-37.211
X55.499Y-27.051
X60.579Y-33.909
X60.833Y-38.227
X63.5Y-29.21
X68.707Y-45.974
X70.485Y-38.989
X70.739Y-41.656
T2
X29.972Y-35.433
X29.972Y-47.709
T3
X35.687Y-34.29
X35.687Y-36.83
X39.751Y-25.654
X41.148Y-30.099
X41.148Y-37.719
X42.291Y-25.654
X45.339Y-27.686
X45.339Y-35.306
X45.72Y-23.495
X51.435Y-29.21
X53.34Y-23.495
X59.055Y-29.21
X62.865Y-24.13
X63.5Y-29.21
X66.04Y-29.21
X67.945Y-30.988
X67.945Y-38.608
X70.485Y-24.13
X70.739Y-41.656
X70.739Y-49.276
X73.025Y-22.86
X73.025Y-27.94
X80.645Y-22.86
X80.645Y-27.94
T4
X25.4Y-32.385
X25.4Y-34.925
X25.4Y-37.465
X25.4Y-41.275
X25.4Y-43.815
X25.4Y-46.355
X25.4Y-48.895
X36.703Y-49.149
X39.243Y-49.149
X41.783Y-49.149
X57.15Y-23.495
X59.69Y-23.495
X76.2Y-31.242
X76.2Y-33.782
X76.2Y-36.322
X76.2Y-38.862
X76.2Y-41.402
X76.2Y-43.942
X76.2Y-46.482
X78.74Y-31.242
X78.74Y-33.782
X78.74Y-36.322
X78.74Y-38.862
X78.74Y-41.402
X78.74Y-43.942
X78.74Y-46.482
X81.28Y-31.242
X81.28Y-33.782
X81.28Y-36.322
X81.28Y-38.862
X81.28Y-41.402
X81.28Y-43.942
X81.28Y-46.482
T5
X27.94Y-23.368G85X27.94Y-24.892
G05
X29.464Y-29.21G85X30.988Y-29.21
G05
X34.036Y-23.368G85X34.036Y-24.892
G05
T0
M30
