G04 #@! TF.FileFunction,Copper,L1,Top,Signal*
%FSLAX46Y46*%
G04 Gerber Fmt 4.6, Leading zero omitted, Abs format (unit mm)*
G04 Created by KiCad (PCBNEW 4.0.2+dfsg1-stable) date Fri 20 May 2016 01:00:29 PM COT*
%MOMM*%
G01*
G04 APERTURE LIST*
%ADD10C,0.150000*%
%ADD11C,0.300000*%
%ADD12C,0.400000*%
%ADD13R,3.000000X1.000000*%
%ADD14C,1.397000*%
%ADD15R,2.032000X3.657600*%
%ADD16R,2.032000X1.016000*%
%ADD17C,4.800600*%
%ADD18R,4.800600X4.800600*%
%ADD19R,1.524000X1.524000*%
%ADD20C,1.524000*%
%ADD21R,2.199640X1.524000*%
%ADD22O,2.199640X1.524000*%
%ADD23R,1.524000X2.199640*%
%ADD24O,1.524000X2.199640*%
%ADD25C,0.889000*%
%ADD26C,0.900000*%
%ADD27C,1.300000*%
%ADD28C,0.254000*%
G04 APERTURE END LIST*
D10*
X299989000Y-253002200D02*
X299989000Y-285002200D01*
X407989000Y-285002200D01*
X407989000Y-253002200D01*
X299989000Y-253002200D01*
X10000000Y-10000000D02*
X10000000Y-287002200D01*
X409989000Y-287002200D01*
X409989000Y-10000000D01*
X10000000Y-10000000D01*
X12000000Y-12000000D02*
X12000000Y-285002200D01*
X407989000Y-285002200D01*
X407989000Y-12000000D01*
X12000000Y-12000000D01*
X60000000Y-12000000D02*
X60000000Y-10000000D01*
X110000000Y-12000000D02*
X110000000Y-10000000D01*
X160000000Y-12000000D02*
X160000000Y-10000000D01*
X210000000Y-12000000D02*
X210000000Y-10000000D01*
X260000000Y-12000000D02*
X260000000Y-10000000D01*
X310000000Y-12000000D02*
X310000000Y-10000000D01*
X360000000Y-12000000D02*
X360000000Y-10000000D01*
X35990476Y-11588095D02*
X35247619Y-11588095D01*
X35619048Y-11588095D02*
X35619048Y-10288095D01*
X35495238Y-10473810D01*
X35371429Y-10597619D01*
X35247619Y-10659524D01*
X85247619Y-10411905D02*
X85309524Y-10350000D01*
X85433333Y-10288095D01*
X85742857Y-10288095D01*
X85866667Y-10350000D01*
X85928571Y-10411905D01*
X85990476Y-10535714D01*
X85990476Y-10659524D01*
X85928571Y-10845238D01*
X85185714Y-11588095D01*
X85990476Y-11588095D01*
X135185714Y-10288095D02*
X135990476Y-10288095D01*
X135557143Y-10783333D01*
X135742857Y-10783333D01*
X135866667Y-10845238D01*
X135928571Y-10907143D01*
X135990476Y-11030952D01*
X135990476Y-11340476D01*
X135928571Y-11464286D01*
X135866667Y-11526190D01*
X135742857Y-11588095D01*
X135371429Y-11588095D01*
X135247619Y-11526190D01*
X135185714Y-11464286D01*
X185866667Y-10721429D02*
X185866667Y-11588095D01*
X185557143Y-10226190D02*
X185247619Y-11154762D01*
X186052381Y-11154762D01*
X235928571Y-10288095D02*
X235309524Y-10288095D01*
X235247619Y-10907143D01*
X235309524Y-10845238D01*
X235433333Y-10783333D01*
X235742857Y-10783333D01*
X235866667Y-10845238D01*
X235928571Y-10907143D01*
X235990476Y-11030952D01*
X235990476Y-11340476D01*
X235928571Y-11464286D01*
X235866667Y-11526190D01*
X235742857Y-11588095D01*
X235433333Y-11588095D01*
X235309524Y-11526190D01*
X235247619Y-11464286D01*
X285866667Y-10288095D02*
X285619048Y-10288095D01*
X285495238Y-10350000D01*
X285433333Y-10411905D01*
X285309524Y-10597619D01*
X285247619Y-10845238D01*
X285247619Y-11340476D01*
X285309524Y-11464286D01*
X285371429Y-11526190D01*
X285495238Y-11588095D01*
X285742857Y-11588095D01*
X285866667Y-11526190D01*
X285928571Y-11464286D01*
X285990476Y-11340476D01*
X285990476Y-11030952D01*
X285928571Y-10907143D01*
X285866667Y-10845238D01*
X285742857Y-10783333D01*
X285495238Y-10783333D01*
X285371429Y-10845238D01*
X285309524Y-10907143D01*
X285247619Y-11030952D01*
X335185714Y-10288095D02*
X336052381Y-10288095D01*
X335495238Y-11588095D01*
X385495238Y-10845238D02*
X385371429Y-10783333D01*
X385309524Y-10721429D01*
X385247619Y-10597619D01*
X385247619Y-10535714D01*
X385309524Y-10411905D01*
X385371429Y-10350000D01*
X385495238Y-10288095D01*
X385742857Y-10288095D01*
X385866667Y-10350000D01*
X385928571Y-10411905D01*
X385990476Y-10535714D01*
X385990476Y-10597619D01*
X385928571Y-10721429D01*
X385866667Y-10783333D01*
X385742857Y-10845238D01*
X385495238Y-10845238D01*
X385371429Y-10907143D01*
X385309524Y-10969048D01*
X385247619Y-11092857D01*
X385247619Y-11340476D01*
X385309524Y-11464286D01*
X385371429Y-11526190D01*
X385495238Y-11588095D01*
X385742857Y-11588095D01*
X385866667Y-11526190D01*
X385928571Y-11464286D01*
X385990476Y-11340476D01*
X385990476Y-11092857D01*
X385928571Y-10969048D01*
X385866667Y-10907143D01*
X385742857Y-10845238D01*
X60000000Y-285002200D02*
X60000000Y-287002200D01*
X110000000Y-285002200D02*
X110000000Y-287002200D01*
X160000000Y-285002200D02*
X160000000Y-287002200D01*
X210000000Y-285002200D02*
X210000000Y-287002200D01*
X260000000Y-285002200D02*
X260000000Y-287002200D01*
X310000000Y-285002200D02*
X310000000Y-287002200D01*
X360000000Y-285002200D02*
X360000000Y-287002200D01*
X35990476Y-286590295D02*
X35247619Y-286590295D01*
X35619048Y-286590295D02*
X35619048Y-285290295D01*
X35495238Y-285476010D01*
X35371429Y-285599819D01*
X35247619Y-285661724D01*
X85247619Y-285414105D02*
X85309524Y-285352200D01*
X85433333Y-285290295D01*
X85742857Y-285290295D01*
X85866667Y-285352200D01*
X85928571Y-285414105D01*
X85990476Y-285537914D01*
X85990476Y-285661724D01*
X85928571Y-285847438D01*
X85185714Y-286590295D01*
X85990476Y-286590295D01*
X135185714Y-285290295D02*
X135990476Y-285290295D01*
X135557143Y-285785533D01*
X135742857Y-285785533D01*
X135866667Y-285847438D01*
X135928571Y-285909343D01*
X135990476Y-286033152D01*
X135990476Y-286342676D01*
X135928571Y-286466486D01*
X135866667Y-286528390D01*
X135742857Y-286590295D01*
X135371429Y-286590295D01*
X135247619Y-286528390D01*
X135185714Y-286466486D01*
X185866667Y-285723629D02*
X185866667Y-286590295D01*
X185557143Y-285228390D02*
X185247619Y-286156962D01*
X186052381Y-286156962D01*
X235928571Y-285290295D02*
X235309524Y-285290295D01*
X235247619Y-285909343D01*
X235309524Y-285847438D01*
X235433333Y-285785533D01*
X235742857Y-285785533D01*
X235866667Y-285847438D01*
X235928571Y-285909343D01*
X235990476Y-286033152D01*
X235990476Y-286342676D01*
X235928571Y-286466486D01*
X235866667Y-286528390D01*
X235742857Y-286590295D01*
X235433333Y-286590295D01*
X235309524Y-286528390D01*
X235247619Y-286466486D01*
X285866667Y-285290295D02*
X285619048Y-285290295D01*
X285495238Y-285352200D01*
X285433333Y-285414105D01*
X285309524Y-285599819D01*
X285247619Y-285847438D01*
X285247619Y-286342676D01*
X285309524Y-286466486D01*
X285371429Y-286528390D01*
X285495238Y-286590295D01*
X285742857Y-286590295D01*
X285866667Y-286528390D01*
X285928571Y-286466486D01*
X285990476Y-286342676D01*
X285990476Y-286033152D01*
X285928571Y-285909343D01*
X285866667Y-285847438D01*
X285742857Y-285785533D01*
X285495238Y-285785533D01*
X285371429Y-285847438D01*
X285309524Y-285909343D01*
X285247619Y-286033152D01*
X335185714Y-285290295D02*
X336052381Y-285290295D01*
X335495238Y-286590295D01*
X385495238Y-285847438D02*
X385371429Y-285785533D01*
X385309524Y-285723629D01*
X385247619Y-285599819D01*
X385247619Y-285537914D01*
X385309524Y-285414105D01*
X385371429Y-285352200D01*
X385495238Y-285290295D01*
X385742857Y-285290295D01*
X385866667Y-285352200D01*
X385928571Y-285414105D01*
X385990476Y-285537914D01*
X385990476Y-285599819D01*
X385928571Y-285723629D01*
X385866667Y-285785533D01*
X385742857Y-285847438D01*
X385495238Y-285847438D01*
X385371429Y-285909343D01*
X385309524Y-285971248D01*
X385247619Y-286095057D01*
X385247619Y-286342676D01*
X385309524Y-286466486D01*
X385371429Y-286528390D01*
X385495238Y-286590295D01*
X385742857Y-286590295D01*
X385866667Y-286528390D01*
X385928571Y-286466486D01*
X385990476Y-286342676D01*
X385990476Y-286095057D01*
X385928571Y-285971248D01*
X385866667Y-285909343D01*
X385742857Y-285847438D01*
X10000000Y-60000000D02*
X12000000Y-60000000D01*
X10000000Y-110000000D02*
X12000000Y-110000000D01*
X10000000Y-160000000D02*
X12000000Y-160000000D01*
X10000000Y-210000000D02*
X12000000Y-210000000D01*
X10000000Y-260000000D02*
X12000000Y-260000000D01*
X10690476Y-35216667D02*
X11309524Y-35216667D01*
X10566667Y-35588095D02*
X11000000Y-34288095D01*
X11433333Y-35588095D01*
X11092857Y-84907143D02*
X11278571Y-84969048D01*
X11340476Y-85030952D01*
X11402381Y-85154762D01*
X11402381Y-85340476D01*
X11340476Y-85464286D01*
X11278571Y-85526190D01*
X11154762Y-85588095D01*
X10659524Y-85588095D01*
X10659524Y-84288095D01*
X11092857Y-84288095D01*
X11216667Y-84350000D01*
X11278571Y-84411905D01*
X11340476Y-84535714D01*
X11340476Y-84659524D01*
X11278571Y-84783333D01*
X11216667Y-84845238D01*
X11092857Y-84907143D01*
X10659524Y-84907143D01*
X11402381Y-135464286D02*
X11340476Y-135526190D01*
X11154762Y-135588095D01*
X11030952Y-135588095D01*
X10845238Y-135526190D01*
X10721429Y-135402381D01*
X10659524Y-135278571D01*
X10597619Y-135030952D01*
X10597619Y-134845238D01*
X10659524Y-134597619D01*
X10721429Y-134473810D01*
X10845238Y-134350000D01*
X11030952Y-134288095D01*
X11154762Y-134288095D01*
X11340476Y-134350000D01*
X11402381Y-134411905D01*
X10659524Y-185588095D02*
X10659524Y-184288095D01*
X10969048Y-184288095D01*
X11154762Y-184350000D01*
X11278571Y-184473810D01*
X11340476Y-184597619D01*
X11402381Y-184845238D01*
X11402381Y-185030952D01*
X11340476Y-185278571D01*
X11278571Y-185402381D01*
X11154762Y-185526190D01*
X10969048Y-185588095D01*
X10659524Y-185588095D01*
X10721429Y-234907143D02*
X11154762Y-234907143D01*
X11340476Y-235588095D02*
X10721429Y-235588095D01*
X10721429Y-234288095D01*
X11340476Y-234288095D01*
X11185714Y-284907143D02*
X10752381Y-284907143D01*
X10752381Y-285588095D02*
X10752381Y-284288095D01*
X11371428Y-284288095D01*
X409989000Y-60000000D02*
X407989000Y-60000000D01*
X409989000Y-110000000D02*
X407989000Y-110000000D01*
X409989000Y-160000000D02*
X407989000Y-160000000D01*
X409989000Y-210000000D02*
X407989000Y-210000000D01*
X409989000Y-260000000D02*
X407989000Y-260000000D01*
X408679476Y-35216667D02*
X409298524Y-35216667D01*
X408555667Y-35588095D02*
X408989000Y-34288095D01*
X409422333Y-35588095D01*
X409081857Y-84907143D02*
X409267571Y-84969048D01*
X409329476Y-85030952D01*
X409391381Y-85154762D01*
X409391381Y-85340476D01*
X409329476Y-85464286D01*
X409267571Y-85526190D01*
X409143762Y-85588095D01*
X408648524Y-85588095D01*
X408648524Y-84288095D01*
X409081857Y-84288095D01*
X409205667Y-84350000D01*
X409267571Y-84411905D01*
X409329476Y-84535714D01*
X409329476Y-84659524D01*
X409267571Y-84783333D01*
X409205667Y-84845238D01*
X409081857Y-84907143D01*
X408648524Y-84907143D01*
X409391381Y-135464286D02*
X409329476Y-135526190D01*
X409143762Y-135588095D01*
X409019952Y-135588095D01*
X408834238Y-135526190D01*
X408710429Y-135402381D01*
X408648524Y-135278571D01*
X408586619Y-135030952D01*
X408586619Y-134845238D01*
X408648524Y-134597619D01*
X408710429Y-134473810D01*
X408834238Y-134350000D01*
X409019952Y-134288095D01*
X409143762Y-134288095D01*
X409329476Y-134350000D01*
X409391381Y-134411905D01*
X408648524Y-185588095D02*
X408648524Y-184288095D01*
X408958048Y-184288095D01*
X409143762Y-184350000D01*
X409267571Y-184473810D01*
X409329476Y-184597619D01*
X409391381Y-184845238D01*
X409391381Y-185030952D01*
X409329476Y-185278571D01*
X409267571Y-185402381D01*
X409143762Y-185526190D01*
X408958048Y-185588095D01*
X408648524Y-185588095D01*
X408710429Y-234907143D02*
X409143762Y-234907143D01*
X409329476Y-235588095D02*
X408710429Y-235588095D01*
X408710429Y-234288095D01*
X409329476Y-234288095D01*
X409174714Y-284907143D02*
X408741381Y-284907143D01*
X408741381Y-285588095D02*
X408741381Y-284288095D01*
X409360428Y-284288095D01*
X323346143Y-280780771D02*
X323346143Y-279280771D01*
X323703286Y-279280771D01*
X323917571Y-279352200D01*
X324060429Y-279495057D01*
X324131857Y-279637914D01*
X324203286Y-279923629D01*
X324203286Y-280137914D01*
X324131857Y-280423629D01*
X324060429Y-280566486D01*
X323917571Y-280709343D01*
X323703286Y-280780771D01*
X323346143Y-280780771D01*
X325489000Y-280780771D02*
X325489000Y-279995057D01*
X325417571Y-279852200D01*
X325274714Y-279780771D01*
X324989000Y-279780771D01*
X324846143Y-279852200D01*
X325489000Y-280709343D02*
X325346143Y-280780771D01*
X324989000Y-280780771D01*
X324846143Y-280709343D01*
X324774714Y-280566486D01*
X324774714Y-280423629D01*
X324846143Y-280280771D01*
X324989000Y-280209343D01*
X325346143Y-280209343D01*
X325489000Y-280137914D01*
X325989000Y-279780771D02*
X326560429Y-279780771D01*
X326203286Y-279280771D02*
X326203286Y-280566486D01*
X326274714Y-280709343D01*
X326417572Y-280780771D01*
X326560429Y-280780771D01*
X327631857Y-280709343D02*
X327489000Y-280780771D01*
X327203286Y-280780771D01*
X327060429Y-280709343D01*
X326989000Y-280566486D01*
X326989000Y-279995057D01*
X327060429Y-279852200D01*
X327203286Y-279780771D01*
X327489000Y-279780771D01*
X327631857Y-279852200D01*
X327703286Y-279995057D01*
X327703286Y-280137914D01*
X326989000Y-280280771D01*
X328346143Y-280637914D02*
X328417571Y-280709343D01*
X328346143Y-280780771D01*
X328274714Y-280709343D01*
X328346143Y-280637914D01*
X328346143Y-280780771D01*
X328346143Y-279852200D02*
X328417571Y-279923629D01*
X328346143Y-279995057D01*
X328274714Y-279923629D01*
X328346143Y-279852200D01*
X328346143Y-279995057D01*
X299989000Y-281502200D02*
X407989000Y-281502200D01*
X301346143Y-283580771D02*
X301346143Y-282080771D01*
X302203286Y-283580771D02*
X301560429Y-282723629D01*
X302203286Y-282080771D02*
X301346143Y-282937914D01*
X302846143Y-283580771D02*
X302846143Y-282580771D01*
X302846143Y-282080771D02*
X302774714Y-282152200D01*
X302846143Y-282223629D01*
X302917571Y-282152200D01*
X302846143Y-282080771D01*
X302846143Y-282223629D01*
X304417572Y-283437914D02*
X304346143Y-283509343D01*
X304131857Y-283580771D01*
X303989000Y-283580771D01*
X303774715Y-283509343D01*
X303631857Y-283366486D01*
X303560429Y-283223629D01*
X303489000Y-282937914D01*
X303489000Y-282723629D01*
X303560429Y-282437914D01*
X303631857Y-282295057D01*
X303774715Y-282152200D01*
X303989000Y-282080771D01*
X304131857Y-282080771D01*
X304346143Y-282152200D01*
X304417572Y-282223629D01*
X305703286Y-283580771D02*
X305703286Y-282795057D01*
X305631857Y-282652200D01*
X305489000Y-282580771D01*
X305203286Y-282580771D01*
X305060429Y-282652200D01*
X305703286Y-283509343D02*
X305560429Y-283580771D01*
X305203286Y-283580771D01*
X305060429Y-283509343D01*
X304989000Y-283366486D01*
X304989000Y-283223629D01*
X305060429Y-283080771D01*
X305203286Y-283009343D01*
X305560429Y-283009343D01*
X305703286Y-282937914D01*
X307060429Y-283580771D02*
X307060429Y-282080771D01*
X307060429Y-283509343D02*
X306917572Y-283580771D01*
X306631858Y-283580771D01*
X306489000Y-283509343D01*
X306417572Y-283437914D01*
X306346143Y-283295057D01*
X306346143Y-282866486D01*
X306417572Y-282723629D01*
X306489000Y-282652200D01*
X306631858Y-282580771D01*
X306917572Y-282580771D01*
X307060429Y-282652200D01*
X308917572Y-282795057D02*
X309417572Y-282795057D01*
X309631858Y-283580771D02*
X308917572Y-283580771D01*
X308917572Y-282080771D01*
X309631858Y-282080771D01*
X310274715Y-283437914D02*
X310346143Y-283509343D01*
X310274715Y-283580771D01*
X310203286Y-283509343D01*
X310274715Y-283437914D01*
X310274715Y-283580771D01*
X310989001Y-283580771D02*
X310989001Y-282080771D01*
X311346144Y-282080771D01*
X311560429Y-282152200D01*
X311703287Y-282295057D01*
X311774715Y-282437914D01*
X311846144Y-282723629D01*
X311846144Y-282937914D01*
X311774715Y-283223629D01*
X311703287Y-283366486D01*
X311560429Y-283509343D01*
X311346144Y-283580771D01*
X310989001Y-283580771D01*
X312489001Y-283437914D02*
X312560429Y-283509343D01*
X312489001Y-283580771D01*
X312417572Y-283509343D01*
X312489001Y-283437914D01*
X312489001Y-283580771D01*
X313131858Y-283152200D02*
X313846144Y-283152200D01*
X312989001Y-283580771D02*
X313489001Y-282080771D01*
X313989001Y-283580771D01*
X314489001Y-283437914D02*
X314560429Y-283509343D01*
X314489001Y-283580771D01*
X314417572Y-283509343D01*
X314489001Y-283437914D01*
X314489001Y-283580771D01*
X317489001Y-283580771D02*
X317489001Y-282080771D01*
X317631858Y-283009343D02*
X318060429Y-283580771D01*
X318060429Y-282580771D02*
X317489001Y-283152200D01*
X318703287Y-283580771D02*
X318703287Y-282580771D01*
X318703287Y-282080771D02*
X318631858Y-282152200D01*
X318703287Y-282223629D01*
X318774715Y-282152200D01*
X318703287Y-282080771D01*
X318703287Y-282223629D01*
X320060430Y-283509343D02*
X319917573Y-283580771D01*
X319631859Y-283580771D01*
X319489001Y-283509343D01*
X319417573Y-283437914D01*
X319346144Y-283295057D01*
X319346144Y-282866486D01*
X319417573Y-282723629D01*
X319489001Y-282652200D01*
X319631859Y-282580771D01*
X319917573Y-282580771D01*
X320060430Y-282652200D01*
X321346144Y-283580771D02*
X321346144Y-282795057D01*
X321274715Y-282652200D01*
X321131858Y-282580771D01*
X320846144Y-282580771D01*
X320703287Y-282652200D01*
X321346144Y-283509343D02*
X321203287Y-283580771D01*
X320846144Y-283580771D01*
X320703287Y-283509343D01*
X320631858Y-283366486D01*
X320631858Y-283223629D01*
X320703287Y-283080771D01*
X320846144Y-283009343D01*
X321203287Y-283009343D01*
X321346144Y-282937914D01*
X322703287Y-283580771D02*
X322703287Y-282080771D01*
X322703287Y-283509343D02*
X322560430Y-283580771D01*
X322274716Y-283580771D01*
X322131858Y-283509343D01*
X322060430Y-283437914D01*
X321989001Y-283295057D01*
X321989001Y-282866486D01*
X322060430Y-282723629D01*
X322131858Y-282652200D01*
X322274716Y-282580771D01*
X322560430Y-282580771D01*
X322703287Y-282652200D01*
X325203287Y-282580771D02*
X325203287Y-283580771D01*
X324846144Y-282009343D02*
X324489001Y-283080771D01*
X325417573Y-283080771D01*
X325989001Y-283437914D02*
X326060429Y-283509343D01*
X325989001Y-283580771D01*
X325917572Y-283509343D01*
X325989001Y-283437914D01*
X325989001Y-283580771D01*
X326989001Y-282080771D02*
X327131858Y-282080771D01*
X327274715Y-282152200D01*
X327346144Y-282223629D01*
X327417573Y-282366486D01*
X327489001Y-282652200D01*
X327489001Y-283009343D01*
X327417573Y-283295057D01*
X327346144Y-283437914D01*
X327274715Y-283509343D01*
X327131858Y-283580771D01*
X326989001Y-283580771D01*
X326846144Y-283509343D01*
X326774715Y-283437914D01*
X326703287Y-283295057D01*
X326631858Y-283009343D01*
X326631858Y-282652200D01*
X326703287Y-282366486D01*
X326774715Y-282223629D01*
X326846144Y-282152200D01*
X326989001Y-282080771D01*
X328131858Y-283437914D02*
X328203286Y-283509343D01*
X328131858Y-283580771D01*
X328060429Y-283509343D01*
X328131858Y-283437914D01*
X328131858Y-283580771D01*
X328774715Y-282223629D02*
X328846144Y-282152200D01*
X328989001Y-282080771D01*
X329346144Y-282080771D01*
X329489001Y-282152200D01*
X329560430Y-282223629D01*
X329631858Y-282366486D01*
X329631858Y-282509343D01*
X329560430Y-282723629D01*
X328703287Y-283580771D01*
X329631858Y-283580771D01*
X330274715Y-283009343D02*
X331417572Y-283009343D01*
X330846143Y-283580771D02*
X330846143Y-282437914D01*
X332774715Y-283580771D02*
X332774715Y-282080771D01*
X332774715Y-283509343D02*
X332631858Y-283580771D01*
X332346144Y-283580771D01*
X332203286Y-283509343D01*
X332131858Y-283437914D01*
X332060429Y-283295057D01*
X332060429Y-282866486D01*
X332131858Y-282723629D01*
X332203286Y-282652200D01*
X332346144Y-282580771D01*
X332631858Y-282580771D01*
X332774715Y-282652200D01*
X333274715Y-282580771D02*
X333846144Y-282580771D01*
X333489001Y-283580771D02*
X333489001Y-282295057D01*
X333560429Y-282152200D01*
X333703287Y-282080771D01*
X333846144Y-282080771D01*
X334274715Y-283509343D02*
X334417572Y-283580771D01*
X334703287Y-283580771D01*
X334846144Y-283509343D01*
X334917572Y-283366486D01*
X334917572Y-283295057D01*
X334846144Y-283152200D01*
X334703287Y-283080771D01*
X334489001Y-283080771D01*
X334346144Y-283009343D01*
X334274715Y-282866486D01*
X334274715Y-282795057D01*
X334346144Y-282652200D01*
X334489001Y-282580771D01*
X334703287Y-282580771D01*
X334846144Y-282652200D01*
X336203287Y-282580771D02*
X336203287Y-283795057D01*
X336131858Y-283937914D01*
X336060430Y-284009343D01*
X335917573Y-284080771D01*
X335703287Y-284080771D01*
X335560430Y-284009343D01*
X336203287Y-283509343D02*
X336060430Y-283580771D01*
X335774716Y-283580771D01*
X335631858Y-283509343D01*
X335560430Y-283437914D01*
X335489001Y-283295057D01*
X335489001Y-282866486D01*
X335560430Y-282723629D01*
X335631858Y-282652200D01*
X335774716Y-282580771D01*
X336060430Y-282580771D01*
X336203287Y-282652200D01*
X337703287Y-283580771D02*
X336846144Y-283580771D01*
X337274716Y-283580771D02*
X337274716Y-282080771D01*
X337131859Y-282295057D01*
X336989001Y-282437914D01*
X336846144Y-282509343D01*
X338346144Y-283009343D02*
X339489001Y-283009343D01*
X340131858Y-283509343D02*
X340274715Y-283580771D01*
X340560430Y-283580771D01*
X340703287Y-283509343D01*
X340774715Y-283366486D01*
X340774715Y-283295057D01*
X340703287Y-283152200D01*
X340560430Y-283080771D01*
X340346144Y-283080771D01*
X340203287Y-283009343D01*
X340131858Y-282866486D01*
X340131858Y-282795057D01*
X340203287Y-282652200D01*
X340346144Y-282580771D01*
X340560430Y-282580771D01*
X340703287Y-282652200D01*
X341203287Y-282580771D02*
X341774716Y-282580771D01*
X341417573Y-282080771D02*
X341417573Y-283366486D01*
X341489001Y-283509343D01*
X341631859Y-283580771D01*
X341774716Y-283580771D01*
X342917573Y-283580771D02*
X342917573Y-282795057D01*
X342846144Y-282652200D01*
X342703287Y-282580771D01*
X342417573Y-282580771D01*
X342274716Y-282652200D01*
X342917573Y-283509343D02*
X342774716Y-283580771D01*
X342417573Y-283580771D01*
X342274716Y-283509343D01*
X342203287Y-283366486D01*
X342203287Y-283223629D01*
X342274716Y-283080771D01*
X342417573Y-283009343D01*
X342774716Y-283009343D01*
X342917573Y-282937914D01*
X343631859Y-283580771D02*
X343631859Y-282080771D01*
X343631859Y-282652200D02*
X343774716Y-282580771D01*
X344060430Y-282580771D01*
X344203287Y-282652200D01*
X344274716Y-282723629D01*
X344346145Y-282866486D01*
X344346145Y-283295057D01*
X344274716Y-283437914D01*
X344203287Y-283509343D01*
X344060430Y-283580771D01*
X343774716Y-283580771D01*
X343631859Y-283509343D01*
X345203288Y-283580771D02*
X345060430Y-283509343D01*
X344989002Y-283366486D01*
X344989002Y-282080771D01*
X346346144Y-283509343D02*
X346203287Y-283580771D01*
X345917573Y-283580771D01*
X345774716Y-283509343D01*
X345703287Y-283366486D01*
X345703287Y-282795057D01*
X345774716Y-282652200D01*
X345917573Y-282580771D01*
X346203287Y-282580771D01*
X346346144Y-282652200D01*
X346417573Y-282795057D01*
X346417573Y-282937914D01*
X345703287Y-283080771D01*
X299989000Y-278502200D02*
X407989000Y-278502200D01*
D11*
X387203286Y-280780771D02*
X386703286Y-280066486D01*
X386346143Y-280780771D02*
X386346143Y-279280771D01*
X386917571Y-279280771D01*
X387060429Y-279352200D01*
X387131857Y-279423629D01*
X387203286Y-279566486D01*
X387203286Y-279780771D01*
X387131857Y-279923629D01*
X387060429Y-279995057D01*
X386917571Y-280066486D01*
X386346143Y-280066486D01*
X388417571Y-280709343D02*
X388274714Y-280780771D01*
X387989000Y-280780771D01*
X387846143Y-280709343D01*
X387774714Y-280566486D01*
X387774714Y-279995057D01*
X387846143Y-279852200D01*
X387989000Y-279780771D01*
X388274714Y-279780771D01*
X388417571Y-279852200D01*
X388489000Y-279995057D01*
X388489000Y-280137914D01*
X387774714Y-280280771D01*
X388989000Y-279780771D02*
X389346143Y-280780771D01*
X389703285Y-279780771D01*
X390274714Y-280637914D02*
X390346142Y-280709343D01*
X390274714Y-280780771D01*
X390203285Y-280709343D01*
X390274714Y-280637914D01*
X390274714Y-280780771D01*
X390274714Y-279852200D02*
X390346142Y-279923629D01*
X390274714Y-279995057D01*
X390203285Y-279923629D01*
X390274714Y-279852200D01*
X390274714Y-279995057D01*
D10*
X301274714Y-280709343D02*
X301489000Y-280780771D01*
X301846143Y-280780771D01*
X301989000Y-280709343D01*
X302060429Y-280637914D01*
X302131857Y-280495057D01*
X302131857Y-280352200D01*
X302060429Y-280209343D01*
X301989000Y-280137914D01*
X301846143Y-280066486D01*
X301560429Y-279995057D01*
X301417571Y-279923629D01*
X301346143Y-279852200D01*
X301274714Y-279709343D01*
X301274714Y-279566486D01*
X301346143Y-279423629D01*
X301417571Y-279352200D01*
X301560429Y-279280771D01*
X301917571Y-279280771D01*
X302131857Y-279352200D01*
X302774714Y-280780771D02*
X302774714Y-279780771D01*
X302774714Y-279280771D02*
X302703285Y-279352200D01*
X302774714Y-279423629D01*
X302846142Y-279352200D01*
X302774714Y-279280771D01*
X302774714Y-279423629D01*
X303346143Y-279780771D02*
X304131857Y-279780771D01*
X303346143Y-280780771D01*
X304131857Y-280780771D01*
X305274714Y-280709343D02*
X305131857Y-280780771D01*
X304846143Y-280780771D01*
X304703286Y-280709343D01*
X304631857Y-280566486D01*
X304631857Y-279995057D01*
X304703286Y-279852200D01*
X304846143Y-279780771D01*
X305131857Y-279780771D01*
X305274714Y-279852200D01*
X305346143Y-279995057D01*
X305346143Y-280137914D01*
X304631857Y-280280771D01*
X305989000Y-280637914D02*
X306060428Y-280709343D01*
X305989000Y-280780771D01*
X305917571Y-280709343D01*
X305989000Y-280637914D01*
X305989000Y-280780771D01*
X305989000Y-279852200D02*
X306060428Y-279923629D01*
X305989000Y-279995057D01*
X305917571Y-279923629D01*
X305989000Y-279852200D01*
X305989000Y-279995057D01*
X307774714Y-280352200D02*
X308489000Y-280352200D01*
X307631857Y-280780771D02*
X308131857Y-279280771D01*
X308631857Y-280780771D01*
X308989000Y-279280771D02*
X309917571Y-279280771D01*
X309417571Y-279852200D01*
X309631857Y-279852200D01*
X309774714Y-279923629D01*
X309846143Y-279995057D01*
X309917571Y-280137914D01*
X309917571Y-280495057D01*
X309846143Y-280637914D01*
X309774714Y-280709343D01*
X309631857Y-280780771D01*
X309203285Y-280780771D01*
X309060428Y-280709343D01*
X308989000Y-280637914D01*
X386346143Y-283580771D02*
X386346143Y-282080771D01*
X387703286Y-283580771D02*
X387703286Y-282080771D01*
X387703286Y-283509343D02*
X387560429Y-283580771D01*
X387274715Y-283580771D01*
X387131857Y-283509343D01*
X387060429Y-283437914D01*
X386989000Y-283295057D01*
X386989000Y-282866486D01*
X387060429Y-282723629D01*
X387131857Y-282652200D01*
X387274715Y-282580771D01*
X387560429Y-282580771D01*
X387703286Y-282652200D01*
X388417572Y-283437914D02*
X388489000Y-283509343D01*
X388417572Y-283580771D01*
X388346143Y-283509343D01*
X388417572Y-283437914D01*
X388417572Y-283580771D01*
X388417572Y-282652200D02*
X388489000Y-282723629D01*
X388417572Y-282795057D01*
X388346143Y-282723629D01*
X388417572Y-282652200D01*
X388417572Y-282795057D01*
X391060429Y-283580771D02*
X390203286Y-283580771D01*
X390631858Y-283580771D02*
X390631858Y-282080771D01*
X390489001Y-282295057D01*
X390346143Y-282437914D01*
X390203286Y-282509343D01*
X392774714Y-282009343D02*
X391489000Y-283937914D01*
X394060429Y-283580771D02*
X393203286Y-283580771D01*
X393631858Y-283580771D02*
X393631858Y-282080771D01*
X393489001Y-282295057D01*
X393346143Y-282437914D01*
X393203286Y-282509343D01*
X299989000Y-274502200D02*
X407989000Y-274502200D01*
D12*
X301441381Y-275206962D02*
X302584238Y-275206962D01*
X301762810Y-277206962D02*
X302012810Y-275206962D01*
X303000905Y-277206962D02*
X303167571Y-275873629D01*
X303250905Y-275206962D02*
X303143762Y-275302200D01*
X303227095Y-275397438D01*
X303334239Y-275302200D01*
X303250905Y-275206962D01*
X303227095Y-275397438D01*
X303834238Y-275873629D02*
X304596143Y-275873629D01*
X304203286Y-275206962D02*
X303989000Y-276921248D01*
X304060430Y-277111724D01*
X304239001Y-277206962D01*
X304429477Y-277206962D01*
X305381858Y-277206962D02*
X305203287Y-277111724D01*
X305131857Y-276921248D01*
X305346143Y-275206962D01*
X306917572Y-277111724D02*
X306715191Y-277206962D01*
X306334239Y-277206962D01*
X306155667Y-277111724D01*
X306084238Y-276921248D01*
X306179476Y-276159343D01*
X306298524Y-275968867D01*
X306500905Y-275873629D01*
X306881857Y-275873629D01*
X307060429Y-275968867D01*
X307131857Y-276159343D01*
X307108048Y-276349819D01*
X306131857Y-276540295D01*
X307881857Y-277016486D02*
X307965192Y-277111724D01*
X307858048Y-277206962D01*
X307774715Y-277111724D01*
X307881857Y-277016486D01*
X307858048Y-277206962D01*
X308012810Y-275968867D02*
X308096144Y-276064105D01*
X307989000Y-276159343D01*
X307905667Y-276064105D01*
X308012810Y-275968867D01*
X307989000Y-276159343D01*
D10*
X301846143Y-272595057D02*
X301346143Y-272595057D01*
X301346143Y-273380771D02*
X301346143Y-271880771D01*
X302060429Y-271880771D01*
X302631857Y-273380771D02*
X302631857Y-272380771D01*
X302631857Y-271880771D02*
X302560428Y-271952200D01*
X302631857Y-272023629D01*
X302703285Y-271952200D01*
X302631857Y-271880771D01*
X302631857Y-272023629D01*
X303560429Y-273380771D02*
X303417571Y-273309343D01*
X303346143Y-273166486D01*
X303346143Y-271880771D01*
X304703285Y-273309343D02*
X304560428Y-273380771D01*
X304274714Y-273380771D01*
X304131857Y-273309343D01*
X304060428Y-273166486D01*
X304060428Y-272595057D01*
X304131857Y-272452200D01*
X304274714Y-272380771D01*
X304560428Y-272380771D01*
X304703285Y-272452200D01*
X304774714Y-272595057D01*
X304774714Y-272737914D01*
X304060428Y-272880771D01*
X305417571Y-273237914D02*
X305488999Y-273309343D01*
X305417571Y-273380771D01*
X305346142Y-273309343D01*
X305417571Y-273237914D01*
X305417571Y-273380771D01*
X305417571Y-272452200D02*
X305488999Y-272523629D01*
X305417571Y-272595057D01*
X305346142Y-272523629D01*
X305417571Y-272452200D01*
X305417571Y-272595057D01*
X307489000Y-273380771D02*
X307346142Y-273309343D01*
X307274714Y-273166486D01*
X307274714Y-271880771D01*
X308703285Y-272380771D02*
X308703285Y-273380771D01*
X308060428Y-272380771D02*
X308060428Y-273166486D01*
X308131856Y-273309343D01*
X308274714Y-273380771D01*
X308488999Y-273380771D01*
X308631856Y-273309343D01*
X308703285Y-273237914D01*
X310060428Y-273380771D02*
X310060428Y-272595057D01*
X309988999Y-272452200D01*
X309846142Y-272380771D01*
X309560428Y-272380771D01*
X309417571Y-272452200D01*
X310060428Y-273309343D02*
X309917571Y-273380771D01*
X309560428Y-273380771D01*
X309417571Y-273309343D01*
X309346142Y-273166486D01*
X309346142Y-273023629D01*
X309417571Y-272880771D01*
X309560428Y-272809343D01*
X309917571Y-272809343D01*
X310060428Y-272737914D01*
X310774714Y-273380771D02*
X310774714Y-271880771D01*
X310774714Y-272452200D02*
X310917571Y-272380771D01*
X311203285Y-272380771D01*
X311346142Y-272452200D01*
X311417571Y-272523629D01*
X311489000Y-272666486D01*
X311489000Y-273095057D01*
X311417571Y-273237914D01*
X311346142Y-273309343D01*
X311203285Y-273380771D01*
X310917571Y-273380771D01*
X310774714Y-273309343D01*
X312346143Y-273380771D02*
X312203285Y-273309343D01*
X312131857Y-273237914D01*
X312060428Y-273095057D01*
X312060428Y-272666486D01*
X312131857Y-272523629D01*
X312203285Y-272452200D01*
X312346143Y-272380771D01*
X312560428Y-272380771D01*
X312703285Y-272452200D01*
X312774714Y-272523629D01*
X312846143Y-272666486D01*
X312846143Y-273095057D01*
X312774714Y-273237914D01*
X312703285Y-273309343D01*
X312560428Y-273380771D01*
X312346143Y-273380771D01*
X313274714Y-272380771D02*
X313846143Y-272380771D01*
X313489000Y-271880771D02*
X313489000Y-273166486D01*
X313560428Y-273309343D01*
X313703286Y-273380771D01*
X313846143Y-273380771D01*
X313989000Y-273523629D02*
X315131857Y-273523629D01*
X315346143Y-272380771D02*
X315703286Y-273380771D01*
X316060428Y-272380771D01*
X316560428Y-272023629D02*
X316631857Y-271952200D01*
X316774714Y-271880771D01*
X317131857Y-271880771D01*
X317274714Y-271952200D01*
X317346143Y-272023629D01*
X317417571Y-272166486D01*
X317417571Y-272309343D01*
X317346143Y-272523629D01*
X316489000Y-273380771D01*
X317417571Y-273380771D01*
X318060428Y-273237914D02*
X318131856Y-273309343D01*
X318060428Y-273380771D01*
X317988999Y-273309343D01*
X318060428Y-273237914D01*
X318060428Y-273380771D01*
X318774714Y-273380771D02*
X318774714Y-271880771D01*
X318917571Y-272809343D02*
X319346142Y-273380771D01*
X319346142Y-272380771D02*
X318774714Y-272952200D01*
X319989000Y-273380771D02*
X319989000Y-272380771D01*
X319989000Y-271880771D02*
X319917571Y-271952200D01*
X319989000Y-272023629D01*
X320060428Y-271952200D01*
X319989000Y-271880771D01*
X319989000Y-272023629D01*
X321346143Y-273309343D02*
X321203286Y-273380771D01*
X320917572Y-273380771D01*
X320774714Y-273309343D01*
X320703286Y-273237914D01*
X320631857Y-273095057D01*
X320631857Y-272666486D01*
X320703286Y-272523629D01*
X320774714Y-272452200D01*
X320917572Y-272380771D01*
X321203286Y-272380771D01*
X321346143Y-272452200D01*
X322631857Y-273380771D02*
X322631857Y-272595057D01*
X322560428Y-272452200D01*
X322417571Y-272380771D01*
X322131857Y-272380771D01*
X321989000Y-272452200D01*
X322631857Y-273309343D02*
X322489000Y-273380771D01*
X322131857Y-273380771D01*
X321989000Y-273309343D01*
X321917571Y-273166486D01*
X321917571Y-273023629D01*
X321989000Y-272880771D01*
X322131857Y-272809343D01*
X322489000Y-272809343D01*
X322631857Y-272737914D01*
X323989000Y-273380771D02*
X323989000Y-271880771D01*
X323989000Y-273309343D02*
X323846143Y-273380771D01*
X323560429Y-273380771D01*
X323417571Y-273309343D01*
X323346143Y-273237914D01*
X323274714Y-273095057D01*
X323274714Y-272666486D01*
X323346143Y-272523629D01*
X323417571Y-272452200D01*
X323560429Y-272380771D01*
X323846143Y-272380771D01*
X323989000Y-272452200D01*
X324346143Y-273523629D02*
X325489000Y-273523629D01*
X325846143Y-272380771D02*
X325846143Y-273880771D01*
X325846143Y-272452200D02*
X325989000Y-272380771D01*
X326274714Y-272380771D01*
X326417571Y-272452200D01*
X326489000Y-272523629D01*
X326560429Y-272666486D01*
X326560429Y-273095057D01*
X326489000Y-273237914D01*
X326417571Y-273309343D01*
X326274714Y-273380771D01*
X325989000Y-273380771D01*
X325846143Y-273309343D01*
X327846143Y-273309343D02*
X327703286Y-273380771D01*
X327417572Y-273380771D01*
X327274714Y-273309343D01*
X327203286Y-273237914D01*
X327131857Y-273095057D01*
X327131857Y-272666486D01*
X327203286Y-272523629D01*
X327274714Y-272452200D01*
X327417572Y-272380771D01*
X327703286Y-272380771D01*
X327846143Y-272452200D01*
X328489000Y-273380771D02*
X328489000Y-271880771D01*
X328489000Y-272452200D02*
X328631857Y-272380771D01*
X328917571Y-272380771D01*
X329060428Y-272452200D01*
X329131857Y-272523629D01*
X329203286Y-272666486D01*
X329203286Y-273095057D01*
X329131857Y-273237914D01*
X329060428Y-273309343D01*
X328917571Y-273380771D01*
X328631857Y-273380771D01*
X328489000Y-273309343D01*
X299989000Y-268502200D02*
X407989000Y-268502200D01*
X301274714Y-270609343D02*
X301489000Y-270680771D01*
X301846143Y-270680771D01*
X301989000Y-270609343D01*
X302060429Y-270537914D01*
X302131857Y-270395057D01*
X302131857Y-270252200D01*
X302060429Y-270109343D01*
X301989000Y-270037914D01*
X301846143Y-269966486D01*
X301560429Y-269895057D01*
X301417571Y-269823629D01*
X301346143Y-269752200D01*
X301274714Y-269609343D01*
X301274714Y-269466486D01*
X301346143Y-269323629D01*
X301417571Y-269252200D01*
X301560429Y-269180771D01*
X301917571Y-269180771D01*
X302131857Y-269252200D01*
X302774714Y-270680771D02*
X302774714Y-269180771D01*
X303417571Y-270680771D02*
X303417571Y-269895057D01*
X303346142Y-269752200D01*
X303203285Y-269680771D01*
X302989000Y-269680771D01*
X302846142Y-269752200D01*
X302774714Y-269823629D01*
X304703285Y-270609343D02*
X304560428Y-270680771D01*
X304274714Y-270680771D01*
X304131857Y-270609343D01*
X304060428Y-270466486D01*
X304060428Y-269895057D01*
X304131857Y-269752200D01*
X304274714Y-269680771D01*
X304560428Y-269680771D01*
X304703285Y-269752200D01*
X304774714Y-269895057D01*
X304774714Y-270037914D01*
X304060428Y-270180771D01*
X305988999Y-270609343D02*
X305846142Y-270680771D01*
X305560428Y-270680771D01*
X305417571Y-270609343D01*
X305346142Y-270466486D01*
X305346142Y-269895057D01*
X305417571Y-269752200D01*
X305560428Y-269680771D01*
X305846142Y-269680771D01*
X305988999Y-269752200D01*
X306060428Y-269895057D01*
X306060428Y-270037914D01*
X305346142Y-270180771D01*
X306488999Y-269680771D02*
X307060428Y-269680771D01*
X306703285Y-269180771D02*
X306703285Y-270466486D01*
X306774713Y-270609343D01*
X306917571Y-270680771D01*
X307060428Y-270680771D01*
X307560428Y-270537914D02*
X307631856Y-270609343D01*
X307560428Y-270680771D01*
X307488999Y-270609343D01*
X307560428Y-270537914D01*
X307560428Y-270680771D01*
X307560428Y-269752200D02*
X307631856Y-269823629D01*
X307560428Y-269895057D01*
X307488999Y-269823629D01*
X307560428Y-269752200D01*
X307560428Y-269895057D01*
X319989000Y-278502200D02*
X319989000Y-281502200D01*
X383989000Y-278502200D02*
X383989000Y-285002200D01*
D13*
X64515000Y-48275000D03*
X64515000Y-46275000D03*
X64515000Y-44275000D03*
X64515000Y-42275000D03*
X64515000Y-40275000D03*
X64515000Y-38275000D03*
X64515000Y-36275000D03*
X64515000Y-34275000D03*
X48515000Y-34275000D03*
X48515000Y-36275000D03*
X48515000Y-38275000D03*
X48515000Y-40275000D03*
X48515000Y-42275000D03*
X48515000Y-44275000D03*
X48515000Y-46275000D03*
X48515000Y-48275000D03*
D14*
X80645000Y-22860000D03*
X80645000Y-27940000D03*
X73025000Y-22860000D03*
X73025000Y-27940000D03*
D15*
X39497000Y-43815000D03*
D16*
X32893000Y-43815000D03*
X32893000Y-46101000D03*
X32893000Y-41529000D03*
D14*
X70739000Y-41656000D03*
X70739000Y-49276000D03*
X67945000Y-30988000D03*
X67945000Y-38608000D03*
X45339000Y-35306000D03*
X45339000Y-27686000D03*
X62865000Y-24130000D03*
X70485000Y-24130000D03*
X59055000Y-29210000D03*
X51435000Y-29210000D03*
X41148000Y-30099000D03*
X41148000Y-37719000D03*
X53340000Y-23495000D03*
X45720000Y-23495000D03*
D17*
X27940000Y-24130000D03*
D18*
X34036000Y-24130000D03*
D17*
X30226000Y-29210000D03*
D19*
X39751000Y-25654000D03*
D20*
X42291000Y-25654000D03*
D19*
X35687000Y-36830000D03*
D20*
X35687000Y-34290000D03*
D14*
X63500000Y-29210000D03*
X66040000Y-29210000D03*
D21*
X76200000Y-46482000D03*
D22*
X76200000Y-43942000D03*
X76200000Y-41402000D03*
X76200000Y-38862000D03*
X76200000Y-36322000D03*
X76200000Y-33782000D03*
X76200000Y-31242000D03*
D21*
X81280000Y-46482000D03*
D22*
X81280000Y-43942000D03*
X81280000Y-41402000D03*
X81280000Y-38862000D03*
X81280000Y-36322000D03*
X81280000Y-33782000D03*
X81280000Y-31242000D03*
D21*
X78740000Y-46482000D03*
D22*
X78740000Y-43942000D03*
X78740000Y-41402000D03*
X78740000Y-38862000D03*
X78740000Y-36322000D03*
X78740000Y-33782000D03*
X78740000Y-31242000D03*
D21*
X25400000Y-41275000D03*
D22*
X25400000Y-43815000D03*
X25400000Y-46355000D03*
X25400000Y-48895000D03*
D21*
X25400000Y-37465000D03*
D22*
X25400000Y-34925000D03*
X25400000Y-32385000D03*
D23*
X36703000Y-49149000D03*
D24*
X39243000Y-49149000D03*
X41783000Y-49149000D03*
D23*
X57150000Y-23495000D03*
D24*
X59690000Y-23495000D03*
D25*
X45339000Y-49149000D03*
X63500000Y-29210000D03*
X29972000Y-47709002D03*
X29972000Y-35433000D03*
X70739000Y-41656000D03*
X68707000Y-45974000D03*
X53213000Y-44323000D03*
X50927000Y-44196000D03*
X70485000Y-38989000D03*
X60833000Y-38227000D03*
X60579000Y-33909000D03*
X53848000Y-37211000D03*
X32893000Y-38989000D03*
X55499000Y-27051000D03*
X41148000Y-30099000D03*
X45212000Y-45212000D03*
X42672000Y-43815000D03*
D26*
X35433000Y-46609000D02*
X35433000Y-43815000D01*
X35560000Y-46736000D02*
X35433000Y-46609000D01*
X42926000Y-46736000D02*
X35560000Y-46736000D01*
X45339000Y-49149000D02*
X42926000Y-46736000D01*
X32893000Y-43815000D02*
X35433000Y-43815000D01*
X35433000Y-43815000D02*
X35560000Y-43815000D01*
X40513000Y-27686000D02*
X45339000Y-27686000D01*
X38735000Y-29464000D02*
X40513000Y-27686000D01*
X38735000Y-40640000D02*
X38735000Y-29464000D01*
X35560000Y-43815000D02*
X38735000Y-40640000D01*
X45720000Y-23495000D02*
X45720000Y-27305000D01*
X45720000Y-27305000D02*
X45339000Y-27686000D01*
X65785000Y-34275000D02*
X64882000Y-34275000D01*
X64882000Y-34275000D02*
X63500000Y-32893000D01*
X63500000Y-32893000D02*
X63500000Y-29210000D01*
D27*
X30353000Y-45974000D02*
X30353000Y-46101000D01*
X29972000Y-45593000D02*
X30353000Y-45974000D01*
X29972000Y-47709002D02*
X29972000Y-45593000D01*
X32893000Y-46101000D02*
X30353000Y-46101000D01*
X29972000Y-45720000D02*
X29972000Y-35433000D01*
X30353000Y-46101000D02*
X29972000Y-45720000D01*
D26*
X70739000Y-41656000D02*
X70739000Y-47371000D01*
X66849000Y-46275000D02*
X64515000Y-46275000D01*
X68072000Y-47498000D02*
X66849000Y-46275000D01*
X70612000Y-47498000D02*
X68072000Y-47498000D01*
X70739000Y-47371000D02*
X70612000Y-47498000D01*
X59055000Y-29210000D02*
X59055000Y-42926000D01*
X60404000Y-44275000D02*
X64515000Y-44275000D01*
X59055000Y-42926000D02*
X60404000Y-44275000D01*
X64531000Y-42291000D02*
X64515000Y-42275000D01*
X66802000Y-42291000D02*
X64531000Y-42291000D01*
X68707000Y-44196000D02*
X66802000Y-42291000D01*
X68707000Y-45974000D02*
X68707000Y-44196000D01*
X48531000Y-42291000D02*
X48515000Y-42275000D01*
X51181000Y-42291000D02*
X48531000Y-42291000D01*
X53213000Y-44323000D02*
X51181000Y-42291000D01*
X50848000Y-44275000D02*
X48515000Y-44275000D01*
X50927000Y-44196000D02*
X50848000Y-44275000D01*
X66564000Y-40275000D02*
X64515000Y-40275000D01*
X67310000Y-41021000D02*
X66564000Y-40275000D01*
X68453000Y-41021000D02*
X67310000Y-41021000D01*
X70485000Y-38989000D02*
X68453000Y-41021000D01*
X60881000Y-38275000D02*
X64515000Y-38275000D01*
X60833000Y-38227000D02*
X60881000Y-38275000D01*
X61675000Y-36275000D02*
X64515000Y-36275000D01*
X60833000Y-35433000D02*
X61675000Y-36275000D01*
X60833000Y-34163000D02*
X60833000Y-35433000D01*
X60579000Y-33909000D02*
X60833000Y-34163000D01*
X48515000Y-40275000D02*
X50784000Y-40275000D01*
X50784000Y-40275000D02*
X53848000Y-37211000D01*
X32893000Y-41529000D02*
X32893000Y-38989000D01*
X66040000Y-29210000D02*
X66040000Y-27305000D01*
X65786000Y-27051000D02*
X55499000Y-27051000D01*
X66040000Y-27305000D02*
X65786000Y-27051000D01*
X48515000Y-34275000D02*
X47356000Y-34275000D01*
X47356000Y-34275000D02*
X45593000Y-32512000D01*
X45593000Y-32512000D02*
X42418000Y-32512000D01*
X42418000Y-32512000D02*
X41148000Y-33782000D01*
X41148000Y-33782000D02*
X41148000Y-37719000D01*
X39497000Y-43815000D02*
X39497000Y-42164000D01*
X39497000Y-42164000D02*
X41148000Y-40513000D01*
X41148000Y-40513000D02*
X41148000Y-37719000D01*
X48515000Y-38275000D02*
X46276000Y-38275000D01*
X45339000Y-37338000D02*
X45339000Y-35306000D01*
X46276000Y-38275000D02*
X45339000Y-37338000D01*
X48515000Y-36275000D02*
X51863000Y-36275000D01*
X49657000Y-30099000D02*
X41148000Y-30099000D01*
X53340000Y-33782000D02*
X49657000Y-30099000D01*
X53340000Y-34798000D02*
X53340000Y-33782000D01*
X51863000Y-36275000D02*
X53340000Y-34798000D01*
X46275000Y-46275000D02*
X48515000Y-46275000D01*
X45212000Y-45212000D02*
X46275000Y-46275000D01*
X53340000Y-23495000D02*
X53340000Y-31242000D01*
X56276000Y-48275000D02*
X64515000Y-48275000D01*
X55499000Y-47498000D02*
X56276000Y-48275000D01*
X55499000Y-33401000D02*
X55499000Y-47498000D01*
X53340000Y-31242000D02*
X55499000Y-33401000D01*
X46370000Y-48275000D02*
X48515000Y-48275000D01*
X42799000Y-44704000D02*
X46370000Y-48275000D01*
X42799000Y-43942000D02*
X42799000Y-44704000D01*
X42672000Y-43815000D02*
X42799000Y-43942000D01*
D28*
G36*
X52255000Y-34348578D02*
X51413578Y-35190000D01*
X50498085Y-35190000D01*
X50553013Y-35135168D01*
X50649889Y-34901864D01*
X50650110Y-34649245D01*
X50650110Y-33900755D01*
X50649889Y-33648136D01*
X50553013Y-33414832D01*
X50374229Y-33236359D01*
X50140755Y-33139890D01*
X48800750Y-33140000D01*
X48642000Y-33298750D01*
X48642000Y-34148000D01*
X50491250Y-34148000D01*
X50650000Y-33989250D01*
X50650110Y-33900755D01*
X50650110Y-34649245D01*
X50650000Y-34560750D01*
X50491250Y-34402000D01*
X48642000Y-34402000D01*
X48642000Y-34422000D01*
X48388000Y-34422000D01*
X48388000Y-34402000D01*
X48388000Y-34148000D01*
X48388000Y-33298750D01*
X48229250Y-33140000D01*
X46889245Y-33139890D01*
X46655771Y-33236359D01*
X46476987Y-33414832D01*
X46380111Y-33648136D01*
X46379890Y-33900755D01*
X46380000Y-33989250D01*
X46538750Y-34148000D01*
X48388000Y-34148000D01*
X48388000Y-34402000D01*
X46538750Y-34402000D01*
X46429672Y-34511077D01*
X46095353Y-34176174D01*
X45605413Y-33972733D01*
X45074914Y-33972270D01*
X44584620Y-34174855D01*
X44209174Y-34549647D01*
X44005733Y-35039587D01*
X44005270Y-35570086D01*
X44207855Y-36060380D01*
X44254000Y-36106605D01*
X44254000Y-37338000D01*
X44336591Y-37753212D01*
X44571789Y-38105211D01*
X45508789Y-39042211D01*
X45860788Y-39277409D01*
X45860789Y-39277409D01*
X46276000Y-39360000D01*
X46531914Y-39360000D01*
X46476987Y-39414832D01*
X46380111Y-39648136D01*
X46379890Y-39900755D01*
X46379890Y-40900755D01*
X46476359Y-41134229D01*
X46616973Y-41275088D01*
X46476987Y-41414832D01*
X46380111Y-41648136D01*
X46379890Y-41900755D01*
X46379890Y-42900755D01*
X46476359Y-43134229D01*
X46616973Y-43275088D01*
X46476987Y-43414832D01*
X46380111Y-43648136D01*
X46379890Y-43900755D01*
X46379890Y-44845468D01*
X45979211Y-44444789D01*
X45955873Y-44429195D01*
X45824286Y-44297378D01*
X45650750Y-44225319D01*
X45627211Y-44209591D01*
X45599688Y-44204116D01*
X45427668Y-44132687D01*
X45239767Y-44132523D01*
X45212000Y-44127000D01*
X45184474Y-44132475D01*
X44998216Y-44132313D01*
X44824556Y-44204067D01*
X44796789Y-44209591D01*
X44773454Y-44225182D01*
X44601311Y-44296311D01*
X44468331Y-44429058D01*
X44444789Y-44444789D01*
X44429195Y-44468126D01*
X44297378Y-44599714D01*
X44277355Y-44647933D01*
X43884000Y-44254578D01*
X43884000Y-43942000D01*
X43801409Y-43526789D01*
X43801409Y-43526788D01*
X43590528Y-43211182D01*
X43587689Y-43204311D01*
X43582390Y-43199003D01*
X43582390Y-43199002D01*
X43566211Y-43174789D01*
X43439211Y-43047789D01*
X43415873Y-43032195D01*
X43284286Y-42900378D01*
X43110750Y-42828319D01*
X43087211Y-42812591D01*
X43059688Y-42807116D01*
X42887668Y-42735687D01*
X42699767Y-42735523D01*
X42672000Y-42730000D01*
X42644474Y-42735475D01*
X42493924Y-42735344D01*
X42493924Y-37911520D01*
X42465146Y-37381802D01*
X42317798Y-37026072D01*
X42082186Y-36964419D01*
X41902581Y-37144024D01*
X41902581Y-36784814D01*
X41840928Y-36549202D01*
X41340520Y-36373076D01*
X40810802Y-36401854D01*
X40455072Y-36549202D01*
X40393419Y-36784814D01*
X41148000Y-37539395D01*
X41902581Y-36784814D01*
X41902581Y-37144024D01*
X41327605Y-37719000D01*
X42082186Y-38473581D01*
X42317798Y-38411928D01*
X42493924Y-37911520D01*
X42493924Y-42735344D01*
X42458216Y-42735313D01*
X42284556Y-42807067D01*
X42256789Y-42812591D01*
X42233454Y-42828182D01*
X42061311Y-42899311D01*
X41928331Y-43032058D01*
X41904789Y-43047789D01*
X41902581Y-43051093D01*
X41902581Y-38653186D01*
X41148000Y-37898605D01*
X40393419Y-38653186D01*
X40455072Y-38888798D01*
X40955480Y-39064924D01*
X41485198Y-39036146D01*
X41840928Y-38888798D01*
X41902581Y-38653186D01*
X41902581Y-43051093D01*
X41889195Y-43071126D01*
X41757378Y-43202714D01*
X41685319Y-43376249D01*
X41669591Y-43399789D01*
X41664116Y-43427311D01*
X41592687Y-43599332D01*
X41592523Y-43787232D01*
X41587000Y-43815000D01*
X41592475Y-43842525D01*
X41592313Y-44028784D01*
X41664067Y-44202443D01*
X41669591Y-44230211D01*
X41685182Y-44253545D01*
X41714000Y-44323288D01*
X41714000Y-44704000D01*
X41796591Y-45119212D01*
X42031789Y-45471211D01*
X42211578Y-45651000D01*
X41148110Y-45651000D01*
X41148102Y-45651000D01*
X41148000Y-44100750D01*
X40989250Y-43942000D01*
X39624000Y-43942000D01*
X39624000Y-43962000D01*
X39370000Y-43962000D01*
X39370000Y-43942000D01*
X38004750Y-43942000D01*
X37846000Y-44100750D01*
X37845897Y-45651000D01*
X36518000Y-45651000D01*
X36518000Y-44391422D01*
X37845969Y-43063452D01*
X37846000Y-43529250D01*
X38004750Y-43688000D01*
X39370000Y-43688000D01*
X39370000Y-43668000D01*
X39624000Y-43668000D01*
X39624000Y-43688000D01*
X40989250Y-43688000D01*
X41148000Y-43529250D01*
X41148110Y-41860445D01*
X41051641Y-41626971D01*
X40873168Y-41448187D01*
X40639864Y-41351311D01*
X40387245Y-41351090D01*
X39782750Y-41351200D01*
X39624002Y-41509948D01*
X39624002Y-41351200D01*
X39539636Y-41351200D01*
X39737409Y-41055212D01*
X39737409Y-41055211D01*
X39820000Y-40640000D01*
X39820000Y-37856407D01*
X39830854Y-38056198D01*
X39978202Y-38411928D01*
X40213814Y-38473581D01*
X40968395Y-37719000D01*
X40213814Y-36964419D01*
X39978202Y-37026072D01*
X39820000Y-37475554D01*
X39820000Y-30376953D01*
X40016855Y-30853380D01*
X40391647Y-31228826D01*
X40881587Y-31432267D01*
X41412086Y-31432730D01*
X41902380Y-31230145D01*
X41948605Y-31184000D01*
X49207578Y-31184000D01*
X52255000Y-34231421D01*
X52255000Y-34348578D01*
X52255000Y-34348578D01*
G37*
X52255000Y-34348578D02*
X51413578Y-35190000D01*
X50498085Y-35190000D01*
X50553013Y-35135168D01*
X50649889Y-34901864D01*
X50650110Y-34649245D01*
X50650110Y-33900755D01*
X50649889Y-33648136D01*
X50553013Y-33414832D01*
X50374229Y-33236359D01*
X50140755Y-33139890D01*
X48800750Y-33140000D01*
X48642000Y-33298750D01*
X48642000Y-34148000D01*
X50491250Y-34148000D01*
X50650000Y-33989250D01*
X50650110Y-33900755D01*
X50650110Y-34649245D01*
X50650000Y-34560750D01*
X50491250Y-34402000D01*
X48642000Y-34402000D01*
X48642000Y-34422000D01*
X48388000Y-34422000D01*
X48388000Y-34402000D01*
X48388000Y-34148000D01*
X48388000Y-33298750D01*
X48229250Y-33140000D01*
X46889245Y-33139890D01*
X46655771Y-33236359D01*
X46476987Y-33414832D01*
X46380111Y-33648136D01*
X46379890Y-33900755D01*
X46380000Y-33989250D01*
X46538750Y-34148000D01*
X48388000Y-34148000D01*
X48388000Y-34402000D01*
X46538750Y-34402000D01*
X46429672Y-34511077D01*
X46095353Y-34176174D01*
X45605413Y-33972733D01*
X45074914Y-33972270D01*
X44584620Y-34174855D01*
X44209174Y-34549647D01*
X44005733Y-35039587D01*
X44005270Y-35570086D01*
X44207855Y-36060380D01*
X44254000Y-36106605D01*
X44254000Y-37338000D01*
X44336591Y-37753212D01*
X44571789Y-38105211D01*
X45508789Y-39042211D01*
X45860788Y-39277409D01*
X45860789Y-39277409D01*
X46276000Y-39360000D01*
X46531914Y-39360000D01*
X46476987Y-39414832D01*
X46380111Y-39648136D01*
X46379890Y-39900755D01*
X46379890Y-40900755D01*
X46476359Y-41134229D01*
X46616973Y-41275088D01*
X46476987Y-41414832D01*
X46380111Y-41648136D01*
X46379890Y-41900755D01*
X46379890Y-42900755D01*
X46476359Y-43134229D01*
X46616973Y-43275088D01*
X46476987Y-43414832D01*
X46380111Y-43648136D01*
X46379890Y-43900755D01*
X46379890Y-44845468D01*
X45979211Y-44444789D01*
X45955873Y-44429195D01*
X45824286Y-44297378D01*
X45650750Y-44225319D01*
X45627211Y-44209591D01*
X45599688Y-44204116D01*
X45427668Y-44132687D01*
X45239767Y-44132523D01*
X45212000Y-44127000D01*
X45184474Y-44132475D01*
X44998216Y-44132313D01*
X44824556Y-44204067D01*
X44796789Y-44209591D01*
X44773454Y-44225182D01*
X44601311Y-44296311D01*
X44468331Y-44429058D01*
X44444789Y-44444789D01*
X44429195Y-44468126D01*
X44297378Y-44599714D01*
X44277355Y-44647933D01*
X43884000Y-44254578D01*
X43884000Y-43942000D01*
X43801409Y-43526789D01*
X43801409Y-43526788D01*
X43590528Y-43211182D01*
X43587689Y-43204311D01*
X43582390Y-43199003D01*
X43582390Y-43199002D01*
X43566211Y-43174789D01*
X43439211Y-43047789D01*
X43415873Y-43032195D01*
X43284286Y-42900378D01*
X43110750Y-42828319D01*
X43087211Y-42812591D01*
X43059688Y-42807116D01*
X42887668Y-42735687D01*
X42699767Y-42735523D01*
X42672000Y-42730000D01*
X42644474Y-42735475D01*
X42493924Y-42735344D01*
X42493924Y-37911520D01*
X42465146Y-37381802D01*
X42317798Y-37026072D01*
X42082186Y-36964419D01*
X41902581Y-37144024D01*
X41902581Y-36784814D01*
X41840928Y-36549202D01*
X41340520Y-36373076D01*
X40810802Y-36401854D01*
X40455072Y-36549202D01*
X40393419Y-36784814D01*
X41148000Y-37539395D01*
X41902581Y-36784814D01*
X41902581Y-37144024D01*
X41327605Y-37719000D01*
X42082186Y-38473581D01*
X42317798Y-38411928D01*
X42493924Y-37911520D01*
X42493924Y-42735344D01*
X42458216Y-42735313D01*
X42284556Y-42807067D01*
X42256789Y-42812591D01*
X42233454Y-42828182D01*
X42061311Y-42899311D01*
X41928331Y-43032058D01*
X41904789Y-43047789D01*
X41902581Y-43051093D01*
X41902581Y-38653186D01*
X41148000Y-37898605D01*
X40393419Y-38653186D01*
X40455072Y-38888798D01*
X40955480Y-39064924D01*
X41485198Y-39036146D01*
X41840928Y-38888798D01*
X41902581Y-38653186D01*
X41902581Y-43051093D01*
X41889195Y-43071126D01*
X41757378Y-43202714D01*
X41685319Y-43376249D01*
X41669591Y-43399789D01*
X41664116Y-43427311D01*
X41592687Y-43599332D01*
X41592523Y-43787232D01*
X41587000Y-43815000D01*
X41592475Y-43842525D01*
X41592313Y-44028784D01*
X41664067Y-44202443D01*
X41669591Y-44230211D01*
X41685182Y-44253545D01*
X41714000Y-44323288D01*
X41714000Y-44704000D01*
X41796591Y-45119212D01*
X42031789Y-45471211D01*
X42211578Y-45651000D01*
X41148110Y-45651000D01*
X41148102Y-45651000D01*
X41148000Y-44100750D01*
X40989250Y-43942000D01*
X39624000Y-43942000D01*
X39624000Y-43962000D01*
X39370000Y-43962000D01*
X39370000Y-43942000D01*
X38004750Y-43942000D01*
X37846000Y-44100750D01*
X37845897Y-45651000D01*
X36518000Y-45651000D01*
X36518000Y-44391422D01*
X37845969Y-43063452D01*
X37846000Y-43529250D01*
X38004750Y-43688000D01*
X39370000Y-43688000D01*
X39370000Y-43668000D01*
X39624000Y-43668000D01*
X39624000Y-43688000D01*
X40989250Y-43688000D01*
X41148000Y-43529250D01*
X41148110Y-41860445D01*
X41051641Y-41626971D01*
X40873168Y-41448187D01*
X40639864Y-41351311D01*
X40387245Y-41351090D01*
X39782750Y-41351200D01*
X39624002Y-41509948D01*
X39624002Y-41351200D01*
X39539636Y-41351200D01*
X39737409Y-41055212D01*
X39737409Y-41055211D01*
X39820000Y-40640000D01*
X39820000Y-37856407D01*
X39830854Y-38056198D01*
X39978202Y-38411928D01*
X40213814Y-38473581D01*
X40968395Y-37719000D01*
X40213814Y-36964419D01*
X39978202Y-37026072D01*
X39820000Y-37475554D01*
X39820000Y-30376953D01*
X40016855Y-30853380D01*
X40391647Y-31228826D01*
X40881587Y-31432267D01*
X41412086Y-31432730D01*
X41902380Y-31230145D01*
X41948605Y-31184000D01*
X49207578Y-31184000D01*
X52255000Y-34231421D01*
X52255000Y-34348578D01*
G36*
X86031000Y-47187418D02*
X85632302Y-46813016D01*
X85631948Y-46812520D01*
X85396887Y-46665922D01*
X84833479Y-46453028D01*
X84832962Y-46452706D01*
X84559694Y-46407221D01*
X83957699Y-46426138D01*
X83957100Y-46426039D01*
X83687226Y-46488592D01*
X83138299Y-46736441D01*
X83137704Y-46736580D01*
X83014930Y-46824314D01*
X83014930Y-45594245D01*
X82918461Y-45360771D01*
X82739988Y-45181987D01*
X82506684Y-45085111D01*
X82392318Y-45085010D01*
X82695450Y-44840026D01*
X82957080Y-44359277D01*
X82972040Y-44285070D01*
X82972040Y-43598930D01*
X82957080Y-43524723D01*
X82695450Y-43043974D01*
X82269761Y-42699941D01*
X82175096Y-42672000D01*
X82269761Y-42644059D01*
X82695450Y-42300026D01*
X82957080Y-41819277D01*
X82972040Y-41745070D01*
X82972040Y-41058930D01*
X82957080Y-40984723D01*
X82695450Y-40503974D01*
X82269761Y-40159941D01*
X82175096Y-40132000D01*
X82269761Y-40104059D01*
X82695450Y-39760026D01*
X82957080Y-39279277D01*
X82972040Y-39205070D01*
X82972040Y-38518930D01*
X82957080Y-38444723D01*
X82695450Y-37963974D01*
X82269761Y-37619941D01*
X82175096Y-37592000D01*
X82269761Y-37564059D01*
X82695450Y-37220026D01*
X82957080Y-36739277D01*
X82972040Y-36665070D01*
X82972040Y-35978930D01*
X82957080Y-35904723D01*
X82695450Y-35423974D01*
X82269761Y-35079941D01*
X82175096Y-35052000D01*
X82269761Y-35024059D01*
X82695450Y-34680026D01*
X82957080Y-34199277D01*
X82972040Y-34125070D01*
X82972040Y-33438930D01*
X82957080Y-33364723D01*
X82695450Y-32883974D01*
X82269761Y-32539941D01*
X82175096Y-32512000D01*
X82269761Y-32484059D01*
X82695450Y-32140026D01*
X82957080Y-31659277D01*
X82972040Y-31585070D01*
X82972040Y-30898930D01*
X82957080Y-30824723D01*
X82695450Y-30343974D01*
X82269761Y-29999941D01*
X81990924Y-29917639D01*
X81990924Y-28132520D01*
X81978730Y-27908064D01*
X81978730Y-22595914D01*
X81776145Y-22105620D01*
X81401353Y-21730174D01*
X80911413Y-21526733D01*
X80380914Y-21526270D01*
X79890620Y-21728855D01*
X79515174Y-22103647D01*
X79311733Y-22593587D01*
X79311270Y-23124086D01*
X79513855Y-23614380D01*
X79888647Y-23989826D01*
X80378587Y-24193267D01*
X80909086Y-24193730D01*
X81399380Y-23991145D01*
X81774826Y-23616353D01*
X81978267Y-23126413D01*
X81978730Y-22595914D01*
X81978730Y-27908064D01*
X81962146Y-27602802D01*
X81814798Y-27247072D01*
X81579186Y-27185419D01*
X81399581Y-27365024D01*
X81399581Y-27005814D01*
X81337928Y-26770202D01*
X80837520Y-26594076D01*
X80307802Y-26622854D01*
X79952072Y-26770202D01*
X79890419Y-27005814D01*
X80645000Y-27760395D01*
X81399581Y-27005814D01*
X81399581Y-27365024D01*
X80824605Y-27940000D01*
X81579186Y-28694581D01*
X81814798Y-28632928D01*
X81990924Y-28132520D01*
X81990924Y-29917639D01*
X81744820Y-29845000D01*
X81407000Y-29845000D01*
X81407000Y-31115000D01*
X82849539Y-31115000D01*
X82972040Y-30898930D01*
X82972040Y-31585070D01*
X82849539Y-31369000D01*
X81407000Y-31369000D01*
X81407000Y-32385000D01*
X81407000Y-32639000D01*
X81407000Y-33655000D01*
X82849539Y-33655000D01*
X82972040Y-33438930D01*
X82972040Y-34125070D01*
X82849539Y-33909000D01*
X81407000Y-33909000D01*
X81407000Y-34925000D01*
X81407000Y-35179000D01*
X81407000Y-36195000D01*
X82849539Y-36195000D01*
X82972040Y-35978930D01*
X82972040Y-36665070D01*
X82849539Y-36449000D01*
X81407000Y-36449000D01*
X81407000Y-37465000D01*
X81407000Y-37719000D01*
X81407000Y-38735000D01*
X82849539Y-38735000D01*
X82972040Y-38518930D01*
X82972040Y-39205070D01*
X82849539Y-38989000D01*
X81407000Y-38989000D01*
X81407000Y-40005000D01*
X81407000Y-40259000D01*
X81407000Y-41275000D01*
X82849539Y-41275000D01*
X82972040Y-41058930D01*
X82972040Y-41745070D01*
X82849539Y-41529000D01*
X81407000Y-41529000D01*
X81407000Y-42545000D01*
X81407000Y-42799000D01*
X81407000Y-43815000D01*
X82849539Y-43815000D01*
X82972040Y-43598930D01*
X82972040Y-44285070D01*
X82849539Y-44069000D01*
X81407000Y-44069000D01*
X81407000Y-45243750D01*
X81407000Y-45339000D01*
X81407000Y-46355000D01*
X82856070Y-46355000D01*
X83014820Y-46196250D01*
X83014930Y-45594245D01*
X83014930Y-46824314D01*
X83014830Y-46824386D01*
X83014820Y-46767750D01*
X82856070Y-46609000D01*
X81407000Y-46609000D01*
X81407000Y-47720250D01*
X81565750Y-47879000D01*
X82236918Y-47879107D01*
X82139835Y-48136033D01*
X82094350Y-48409302D01*
X82113265Y-49011193D01*
X82113157Y-49011846D01*
X82175710Y-49281719D01*
X82423517Y-49830553D01*
X82423668Y-49831201D01*
X82584736Y-50056594D01*
X82890792Y-50344000D01*
X81399581Y-50344000D01*
X81399581Y-28874186D01*
X80645000Y-28119605D01*
X80465395Y-28299210D01*
X80465395Y-27940000D01*
X79710814Y-27185419D01*
X79475202Y-27247072D01*
X79299076Y-27747480D01*
X79327854Y-28277198D01*
X79475202Y-28632928D01*
X79710814Y-28694581D01*
X80465395Y-27940000D01*
X80465395Y-28299210D01*
X79890419Y-28874186D01*
X79952072Y-29109798D01*
X80452480Y-29285924D01*
X80982198Y-29257146D01*
X81337928Y-29109798D01*
X81399581Y-28874186D01*
X81399581Y-50344000D01*
X81153000Y-50344000D01*
X81153000Y-47720250D01*
X81153000Y-46609000D01*
X81133000Y-46609000D01*
X81133000Y-46355000D01*
X81153000Y-46355000D01*
X81153000Y-45339000D01*
X81153000Y-45243750D01*
X81153000Y-44069000D01*
X81133000Y-44069000D01*
X81133000Y-43815000D01*
X81153000Y-43815000D01*
X81153000Y-42799000D01*
X81153000Y-42545000D01*
X81153000Y-41529000D01*
X81133000Y-41529000D01*
X81133000Y-41275000D01*
X81153000Y-41275000D01*
X81153000Y-40259000D01*
X81153000Y-40005000D01*
X81153000Y-38989000D01*
X81133000Y-38989000D01*
X81133000Y-38735000D01*
X81153000Y-38735000D01*
X81153000Y-37719000D01*
X81153000Y-37465000D01*
X81153000Y-36449000D01*
X81133000Y-36449000D01*
X81133000Y-36195000D01*
X81153000Y-36195000D01*
X81153000Y-35179000D01*
X81153000Y-34925000D01*
X81153000Y-33909000D01*
X81133000Y-33909000D01*
X81133000Y-33655000D01*
X81153000Y-33655000D01*
X81153000Y-32639000D01*
X81153000Y-32385000D01*
X81153000Y-31369000D01*
X81133000Y-31369000D01*
X81133000Y-31115000D01*
X81153000Y-31115000D01*
X81153000Y-29845000D01*
X80815180Y-29845000D01*
X80290239Y-29999941D01*
X80031772Y-30208827D01*
X79646416Y-29951340D01*
X79111807Y-29845000D01*
X78368193Y-29845000D01*
X77833584Y-29951340D01*
X77470000Y-30194279D01*
X77106416Y-29951340D01*
X76571807Y-29845000D01*
X75828193Y-29845000D01*
X75293584Y-29951340D01*
X74840365Y-30254172D01*
X74537533Y-30707391D01*
X74431193Y-31242000D01*
X74537533Y-31776609D01*
X74840365Y-32229828D01*
X75262664Y-32512000D01*
X74840365Y-32794172D01*
X74537533Y-33247391D01*
X74431193Y-33782000D01*
X74537533Y-34316609D01*
X74840365Y-34769828D01*
X75262664Y-35052000D01*
X74840365Y-35334172D01*
X74537533Y-35787391D01*
X74431193Y-36322000D01*
X74537533Y-36856609D01*
X74840365Y-37309828D01*
X75262664Y-37592000D01*
X74840365Y-37874172D01*
X74537533Y-38327391D01*
X74431193Y-38862000D01*
X74537533Y-39396609D01*
X74840365Y-39849828D01*
X75262664Y-40132000D01*
X74840365Y-40414172D01*
X74537533Y-40867391D01*
X74431193Y-41402000D01*
X74537533Y-41936609D01*
X74840365Y-42389828D01*
X75262664Y-42672000D01*
X74840365Y-42954172D01*
X74537533Y-43407391D01*
X74431193Y-43942000D01*
X74537533Y-44476609D01*
X74840365Y-44929828D01*
X75072431Y-45084890D01*
X74974425Y-45084890D01*
X74740951Y-45181359D01*
X74562167Y-45359832D01*
X74465291Y-45593136D01*
X74465070Y-45845755D01*
X74465070Y-47369755D01*
X74561539Y-47603229D01*
X74740012Y-47782013D01*
X74973316Y-47878889D01*
X75225935Y-47879110D01*
X77425575Y-47879110D01*
X77469820Y-47860828D01*
X77513316Y-47878889D01*
X77765935Y-47879110D01*
X79965575Y-47879110D01*
X80009820Y-47860828D01*
X80053316Y-47878889D01*
X80305935Y-47879110D01*
X80994250Y-47879000D01*
X81153000Y-47720250D01*
X81153000Y-50344000D01*
X74370924Y-50344000D01*
X74370924Y-28132520D01*
X74358730Y-27908064D01*
X74358730Y-22595914D01*
X74156145Y-22105620D01*
X73781353Y-21730174D01*
X73291413Y-21526733D01*
X72760914Y-21526270D01*
X72270620Y-21728855D01*
X71895174Y-22103647D01*
X71691733Y-22593587D01*
X71691270Y-23124086D01*
X71893855Y-23614380D01*
X72268647Y-23989826D01*
X72758587Y-24193267D01*
X73289086Y-24193730D01*
X73779380Y-23991145D01*
X74154826Y-23616353D01*
X74358267Y-23126413D01*
X74358730Y-22595914D01*
X74358730Y-27908064D01*
X74342146Y-27602802D01*
X74194798Y-27247072D01*
X73959186Y-27185419D01*
X73779581Y-27365024D01*
X73779581Y-27005814D01*
X73717928Y-26770202D01*
X73217520Y-26594076D01*
X72687802Y-26622854D01*
X72332072Y-26770202D01*
X72270419Y-27005814D01*
X73025000Y-27760395D01*
X73779581Y-27005814D01*
X73779581Y-27365024D01*
X73204605Y-27940000D01*
X73959186Y-28694581D01*
X74194798Y-28632928D01*
X74370924Y-28132520D01*
X74370924Y-50344000D01*
X73779581Y-50344000D01*
X73779581Y-28874186D01*
X73025000Y-28119605D01*
X72845395Y-28299210D01*
X72845395Y-27940000D01*
X72090814Y-27185419D01*
X71855202Y-27247072D01*
X71818730Y-27350695D01*
X71818730Y-23865914D01*
X71616145Y-23375620D01*
X71241353Y-23000174D01*
X70751413Y-22796733D01*
X70220914Y-22796270D01*
X69730620Y-22998855D01*
X69355174Y-23373647D01*
X69151733Y-23863587D01*
X69151270Y-24394086D01*
X69353855Y-24884380D01*
X69728647Y-25259826D01*
X70218587Y-25463267D01*
X70749086Y-25463730D01*
X71239380Y-25261145D01*
X71614826Y-24886353D01*
X71818267Y-24396413D01*
X71818730Y-23865914D01*
X71818730Y-27350695D01*
X71679076Y-27747480D01*
X71707854Y-28277198D01*
X71855202Y-28632928D01*
X72090814Y-28694581D01*
X72845395Y-27940000D01*
X72845395Y-28299210D01*
X72270419Y-28874186D01*
X72332072Y-29109798D01*
X72832480Y-29285924D01*
X73362198Y-29257146D01*
X73717928Y-29109798D01*
X73779581Y-28874186D01*
X73779581Y-50344000D01*
X72084924Y-50344000D01*
X72084924Y-49468520D01*
X72056146Y-48938802D01*
X71908798Y-48583072D01*
X71673186Y-48521419D01*
X70918605Y-49276000D01*
X71673186Y-50030581D01*
X71908798Y-49968928D01*
X72084924Y-49468520D01*
X72084924Y-50344000D01*
X71458565Y-50344000D01*
X71493581Y-50210186D01*
X70739000Y-49455605D01*
X69984419Y-50210186D01*
X70019434Y-50344000D01*
X66525605Y-50344000D01*
X65591715Y-49410110D01*
X66140755Y-49410110D01*
X66374229Y-49313641D01*
X66553013Y-49135168D01*
X66649889Y-48901864D01*
X66650110Y-48649245D01*
X66650110Y-47649245D01*
X66622851Y-47583273D01*
X67304789Y-48265211D01*
X67656788Y-48500409D01*
X67656789Y-48500409D01*
X68072000Y-48583000D01*
X69569477Y-48583000D01*
X69569202Y-48583072D01*
X69393076Y-49083480D01*
X69421854Y-49613198D01*
X69569202Y-49968928D01*
X69804814Y-50030581D01*
X70559395Y-49276000D01*
X70545252Y-49261857D01*
X70724857Y-49082252D01*
X70739000Y-49096395D01*
X71493581Y-48341814D01*
X71453973Y-48190448D01*
X71506211Y-48138211D01*
X71741409Y-47786212D01*
X71741409Y-47786211D01*
X71824000Y-47371000D01*
X71824000Y-42457100D01*
X71868826Y-42412353D01*
X72072267Y-41922413D01*
X72072730Y-41391914D01*
X71870145Y-40901620D01*
X71495353Y-40526174D01*
X71005413Y-40322733D01*
X70685967Y-40322454D01*
X71252210Y-39756212D01*
X71267803Y-39732874D01*
X71399622Y-39601286D01*
X71471679Y-39427752D01*
X71487409Y-39404212D01*
X71492884Y-39376687D01*
X71564313Y-39204668D01*
X71564476Y-39016768D01*
X71570000Y-38989001D01*
X71564524Y-38961475D01*
X71564687Y-38775216D01*
X71492931Y-38601555D01*
X71487409Y-38573790D01*
X71471818Y-38550456D01*
X71400689Y-38378311D01*
X71267936Y-38245327D01*
X71252210Y-38221790D01*
X71228878Y-38206200D01*
X71097286Y-38074378D01*
X70923747Y-38002317D01*
X70900210Y-37986591D01*
X70872688Y-37981116D01*
X70700668Y-37909687D01*
X70512766Y-37909523D01*
X70484999Y-37904000D01*
X70457473Y-37909475D01*
X70271216Y-37909313D01*
X70097557Y-37981067D01*
X70069788Y-37986591D01*
X70046451Y-38002183D01*
X69874311Y-38073311D01*
X69741331Y-38206058D01*
X69717788Y-38221790D01*
X69278453Y-38661124D01*
X69278730Y-38343914D01*
X69278730Y-30723914D01*
X69076145Y-30233620D01*
X68701353Y-29858174D01*
X68211413Y-29654733D01*
X67680914Y-29654270D01*
X67232037Y-29839741D01*
X67385924Y-29402520D01*
X67357146Y-28872802D01*
X67209798Y-28517072D01*
X66974186Y-28455419D01*
X66794581Y-28635024D01*
X66794581Y-28275814D01*
X66732928Y-28040202D01*
X66232520Y-27864076D01*
X65702802Y-27892854D01*
X65347072Y-28040202D01*
X65285419Y-28275814D01*
X66040000Y-29030395D01*
X66794581Y-28275814D01*
X66794581Y-28635024D01*
X66219605Y-29210000D01*
X66233747Y-29224142D01*
X66054142Y-29403747D01*
X66040000Y-29389605D01*
X65285419Y-30144186D01*
X65347072Y-30379798D01*
X65847480Y-30555924D01*
X66377198Y-30527146D01*
X66732928Y-30379798D01*
X66794580Y-30144188D01*
X66794581Y-30144189D01*
X66848635Y-30198243D01*
X66815174Y-30231647D01*
X66794581Y-30281240D01*
X66611733Y-30721587D01*
X66611270Y-31252086D01*
X66813855Y-31742380D01*
X67188647Y-32117826D01*
X67678587Y-32321267D01*
X68209086Y-32321730D01*
X68699380Y-32119145D01*
X69074826Y-31744353D01*
X69278267Y-31254413D01*
X69278730Y-30723914D01*
X69278730Y-38343914D01*
X69076145Y-37853620D01*
X68701353Y-37478174D01*
X68211413Y-37274733D01*
X67680914Y-37274270D01*
X67190620Y-37476855D01*
X66815174Y-37851647D01*
X66650110Y-38249164D01*
X66650110Y-37649245D01*
X66553641Y-37415771D01*
X66413026Y-37274911D01*
X66553013Y-37135168D01*
X66649889Y-36901864D01*
X66650110Y-36649245D01*
X66650110Y-35649245D01*
X66553641Y-35415771D01*
X66413026Y-35274911D01*
X66553013Y-35135168D01*
X66649889Y-34901864D01*
X66649894Y-34896017D01*
X66787409Y-34690212D01*
X66870000Y-34275000D01*
X66787409Y-33859788D01*
X66650110Y-33654305D01*
X66650110Y-33649245D01*
X66553641Y-33415771D01*
X66375168Y-33236987D01*
X66141864Y-33140111D01*
X65889245Y-33139890D01*
X65281312Y-33139890D01*
X64585000Y-32443578D01*
X64585000Y-30011100D01*
X64629826Y-29966353D01*
X64763314Y-29644877D01*
X64870202Y-29902928D01*
X65105814Y-29964581D01*
X65860395Y-29210000D01*
X65105814Y-28455419D01*
X64870202Y-28517072D01*
X64771917Y-28796316D01*
X64631145Y-28455620D01*
X64256353Y-28080174D01*
X64198730Y-28056246D01*
X64198730Y-23865914D01*
X63996145Y-23375620D01*
X63621353Y-23000174D01*
X63131413Y-22796733D01*
X62600914Y-22796270D01*
X62110620Y-22998855D01*
X61735174Y-23373647D01*
X61531733Y-23863587D01*
X61531270Y-24394086D01*
X61733855Y-24884380D01*
X62108647Y-25259826D01*
X62598587Y-25463267D01*
X63129086Y-25463730D01*
X63619380Y-25261145D01*
X63994826Y-24886353D01*
X64198267Y-24396413D01*
X64198730Y-23865914D01*
X64198730Y-28056246D01*
X63766413Y-27876733D01*
X63235914Y-27876270D01*
X62745620Y-28078855D01*
X62370174Y-28453647D01*
X62166733Y-28943587D01*
X62166270Y-29474086D01*
X62368855Y-29964380D01*
X62415000Y-30010605D01*
X62415000Y-32893000D01*
X62497591Y-33308212D01*
X62532082Y-33359831D01*
X62532082Y-33359832D01*
X62476987Y-33414832D01*
X62380111Y-33648136D01*
X62379890Y-33900755D01*
X62379890Y-34900755D01*
X62476359Y-35134229D01*
X62532032Y-35190000D01*
X62124421Y-35190000D01*
X61918000Y-34983578D01*
X61918000Y-34163000D01*
X61835409Y-33747789D01*
X61835409Y-33747788D01*
X61600211Y-33395789D01*
X61346211Y-33141789D01*
X61322873Y-33126195D01*
X61191286Y-32994378D01*
X61087000Y-32951074D01*
X61087000Y-23866807D01*
X61087000Y-23123193D01*
X60980660Y-22588584D01*
X60677828Y-22135365D01*
X60224609Y-21832533D01*
X59690000Y-21726193D01*
X59155391Y-21832533D01*
X58702172Y-22135365D01*
X58546975Y-22367631D01*
X58546889Y-22268316D01*
X58450013Y-22035012D01*
X58271229Y-21856539D01*
X58037755Y-21760070D01*
X57435750Y-21760180D01*
X57277000Y-21918930D01*
X57277000Y-23368000D01*
X57297000Y-23368000D01*
X57297000Y-23622000D01*
X57277000Y-23622000D01*
X57277000Y-25071070D01*
X57435750Y-25229820D01*
X58037755Y-25229930D01*
X58271229Y-25133461D01*
X58450013Y-24954988D01*
X58546889Y-24721684D01*
X58546975Y-24622368D01*
X58702172Y-24854635D01*
X59155391Y-25157467D01*
X59690000Y-25263807D01*
X60224609Y-25157467D01*
X60677828Y-24854635D01*
X60980660Y-24401416D01*
X61087000Y-23866807D01*
X61087000Y-32951074D01*
X61017750Y-32922319D01*
X60994211Y-32906591D01*
X60966688Y-32901116D01*
X60794668Y-32829687D01*
X60606767Y-32829523D01*
X60579000Y-32824000D01*
X60551474Y-32829475D01*
X60365216Y-32829313D01*
X60191556Y-32901067D01*
X60163789Y-32906591D01*
X60140454Y-32922182D01*
X60140000Y-32922370D01*
X60140000Y-30011100D01*
X60184826Y-29966353D01*
X60388267Y-29476413D01*
X60388730Y-28945914D01*
X60186145Y-28455620D01*
X59811353Y-28080174D01*
X59321413Y-27876733D01*
X58790914Y-27876270D01*
X58300620Y-28078855D01*
X57925174Y-28453647D01*
X57721733Y-28943587D01*
X57721270Y-29474086D01*
X57923855Y-29964380D01*
X57970000Y-30010605D01*
X57970000Y-42926000D01*
X58052591Y-43341212D01*
X58287789Y-43693211D01*
X59636789Y-45042211D01*
X59988788Y-45277409D01*
X59988789Y-45277409D01*
X60404000Y-45360000D01*
X62531914Y-45360000D01*
X62476987Y-45414832D01*
X62380111Y-45648136D01*
X62379890Y-45900755D01*
X62379890Y-46900755D01*
X62476359Y-47134229D01*
X62532032Y-47190000D01*
X57023000Y-47190000D01*
X57023000Y-25071070D01*
X57023000Y-23622000D01*
X57023000Y-23368000D01*
X57023000Y-21918930D01*
X56864250Y-21760180D01*
X56262245Y-21760070D01*
X56028771Y-21856539D01*
X55849987Y-22035012D01*
X55753111Y-22268316D01*
X55752890Y-22520935D01*
X55753000Y-23209250D01*
X55911750Y-23368000D01*
X57023000Y-23368000D01*
X57023000Y-23622000D01*
X55911750Y-23622000D01*
X55753000Y-23780750D01*
X55752890Y-24469065D01*
X55753111Y-24721684D01*
X55849987Y-24954988D01*
X56028771Y-25133461D01*
X56262245Y-25229930D01*
X56864250Y-25229820D01*
X57023000Y-25071070D01*
X57023000Y-47190000D01*
X56725422Y-47190000D01*
X56584000Y-47048578D01*
X56584000Y-33401000D01*
X56501409Y-32985789D01*
X56501409Y-32985788D01*
X56266211Y-32633789D01*
X54425000Y-30792578D01*
X54425000Y-24296100D01*
X54469826Y-24251353D01*
X54673267Y-23761413D01*
X54673730Y-23230914D01*
X54471145Y-22740620D01*
X54096353Y-22365174D01*
X53606413Y-22161733D01*
X53075914Y-22161270D01*
X52585620Y-22363855D01*
X52210174Y-22738647D01*
X52006733Y-23228587D01*
X52006270Y-23759086D01*
X52208855Y-24249380D01*
X52255000Y-24295605D01*
X52255000Y-28143932D01*
X52191353Y-28080174D01*
X51701413Y-27876733D01*
X51170914Y-27876270D01*
X50680620Y-28078855D01*
X50305174Y-28453647D01*
X50101733Y-28943587D01*
X50101582Y-29116215D01*
X50072212Y-29096591D01*
X49657000Y-29014000D01*
X45616953Y-29014000D01*
X46093380Y-28817145D01*
X46468826Y-28442353D01*
X46672267Y-27952413D01*
X46672404Y-27795049D01*
X46672404Y-27795048D01*
X46722409Y-27720212D01*
X46722409Y-27720211D01*
X46805000Y-27305000D01*
X46805000Y-24296100D01*
X46849826Y-24251353D01*
X47053267Y-23761413D01*
X47053730Y-23230914D01*
X46851145Y-22740620D01*
X46476353Y-22365174D01*
X45986413Y-22161733D01*
X45455914Y-22161270D01*
X44965620Y-22363855D01*
X44590174Y-22738647D01*
X44386733Y-23228587D01*
X44386270Y-23759086D01*
X44588855Y-24249380D01*
X44635000Y-24295605D01*
X44635000Y-26534038D01*
X44584620Y-26554855D01*
X44538394Y-26601000D01*
X43700143Y-26601000D01*
X43354842Y-26601000D01*
X43386225Y-26569617D01*
X43271214Y-26454606D01*
X43513396Y-26385142D01*
X43700143Y-25861696D01*
X43672360Y-25306631D01*
X43513396Y-24922858D01*
X43271212Y-24853393D01*
X43091607Y-25032998D01*
X43091607Y-24673788D01*
X43022142Y-24431604D01*
X42498696Y-24244857D01*
X41943631Y-24272640D01*
X41559858Y-24431604D01*
X41490393Y-24673788D01*
X42291000Y-25474395D01*
X43091607Y-24673788D01*
X43091607Y-25032998D01*
X42470605Y-25654000D01*
X42484747Y-25668142D01*
X42305142Y-25847747D01*
X42291000Y-25833605D01*
X42276857Y-25847747D01*
X42097252Y-25668142D01*
X42111395Y-25654000D01*
X41310788Y-24853393D01*
X41148110Y-24900053D01*
X41148110Y-24766245D01*
X41051641Y-24532771D01*
X40873168Y-24353987D01*
X40639864Y-24257111D01*
X40387245Y-24256890D01*
X38863245Y-24256890D01*
X38629771Y-24353359D01*
X38450987Y-24531832D01*
X38354111Y-24765136D01*
X38353890Y-25017755D01*
X38353890Y-26541755D01*
X38450359Y-26775229D01*
X38628832Y-26954013D01*
X38862136Y-27050889D01*
X39114755Y-27051110D01*
X39613468Y-27051110D01*
X37967789Y-28696789D01*
X37732591Y-29048788D01*
X37650000Y-29464000D01*
X37650000Y-40190578D01*
X37096143Y-40744435D01*
X37096143Y-34497696D01*
X37071410Y-34003565D01*
X37071410Y-26404545D01*
X37071410Y-21603945D01*
X36974941Y-21370471D01*
X36796468Y-21191687D01*
X36563164Y-21094811D01*
X36310545Y-21094590D01*
X31509945Y-21094590D01*
X31276471Y-21191059D01*
X31097687Y-21369532D01*
X31000811Y-21602836D01*
X31000590Y-21855455D01*
X31000590Y-26246261D01*
X30976369Y-26236278D01*
X30824358Y-26173631D01*
X30164412Y-26174804D01*
X30103936Y-26114328D01*
X30516257Y-25844779D01*
X30976369Y-24728358D01*
X30974221Y-23520843D01*
X30516257Y-22415221D01*
X30103935Y-22145670D01*
X29924330Y-22325275D01*
X29924330Y-21966065D01*
X29654779Y-21553743D01*
X28538358Y-21093631D01*
X27330843Y-21095779D01*
X26225221Y-21553743D01*
X25955670Y-21966065D01*
X27940000Y-23950395D01*
X29924330Y-21966065D01*
X29924330Y-22325275D01*
X28119605Y-24130000D01*
X28133747Y-24144142D01*
X27954142Y-24323747D01*
X27940000Y-24309605D01*
X27760395Y-24489210D01*
X27760395Y-24130000D01*
X25776065Y-22145670D01*
X25363743Y-22415221D01*
X24903631Y-23531642D01*
X24905779Y-24739157D01*
X25363743Y-25844779D01*
X25776065Y-26114330D01*
X27760395Y-24130000D01*
X27760395Y-24489210D01*
X25955670Y-26293935D01*
X26225221Y-26706257D01*
X27341642Y-27166369D01*
X28001586Y-27165194D01*
X28062063Y-27225671D01*
X27649743Y-27495221D01*
X27189631Y-28611642D01*
X27191779Y-29819157D01*
X27649743Y-30924779D01*
X28062065Y-31194330D01*
X30046395Y-29210000D01*
X30032252Y-29195857D01*
X30211857Y-29016252D01*
X30226000Y-29030395D01*
X30240142Y-29016252D01*
X30419747Y-29195857D01*
X30405605Y-29210000D01*
X32389935Y-31194330D01*
X32802257Y-30924779D01*
X33262369Y-29808358D01*
X33260221Y-28600843D01*
X32802257Y-27495221D01*
X32389936Y-27225671D01*
X32450198Y-27165410D01*
X36562055Y-27165410D01*
X36795529Y-27068941D01*
X36974313Y-26890468D01*
X37071189Y-26657164D01*
X37071410Y-26404545D01*
X37071410Y-34003565D01*
X37068360Y-33942631D01*
X36909396Y-33558858D01*
X36667212Y-33489393D01*
X36487607Y-33668998D01*
X36487607Y-33309788D01*
X36418142Y-33067604D01*
X35894696Y-32880857D01*
X35339631Y-32908640D01*
X34955858Y-33067604D01*
X34886393Y-33309788D01*
X35687000Y-34110395D01*
X36487607Y-33309788D01*
X36487607Y-33668998D01*
X35866605Y-34290000D01*
X36667212Y-35090607D01*
X36909396Y-35021142D01*
X37096143Y-34497696D01*
X37096143Y-40744435D01*
X37084110Y-40756468D01*
X37084110Y-37466245D01*
X37084110Y-35942245D01*
X36987641Y-35708771D01*
X36809168Y-35529987D01*
X36575864Y-35433111D01*
X36440916Y-35432992D01*
X36487607Y-35270212D01*
X35687000Y-34469605D01*
X35507395Y-34649210D01*
X35507395Y-34290000D01*
X34706788Y-33489393D01*
X34464604Y-33558858D01*
X34277857Y-34082304D01*
X34305640Y-34637369D01*
X34464604Y-35021142D01*
X34706788Y-35090607D01*
X35507395Y-34290000D01*
X35507395Y-34649210D01*
X34886393Y-35270212D01*
X34933053Y-35432890D01*
X34799245Y-35432890D01*
X34565771Y-35529359D01*
X34386987Y-35707832D01*
X34290111Y-35941136D01*
X34289890Y-36193755D01*
X34289890Y-37717755D01*
X34386359Y-37951229D01*
X34564832Y-38130013D01*
X34798136Y-38226889D01*
X35050755Y-38227110D01*
X36574755Y-38227110D01*
X36808229Y-38130641D01*
X36987013Y-37952168D01*
X37083889Y-37718864D01*
X37084110Y-37466245D01*
X37084110Y-40756468D01*
X35110578Y-42730000D01*
X34175276Y-42730000D01*
X34035864Y-42672111D01*
X33908982Y-42672000D01*
X34035864Y-42671889D01*
X34269168Y-42575013D01*
X34447641Y-42396229D01*
X34544110Y-42162755D01*
X34544110Y-40895245D01*
X34447641Y-40661771D01*
X34269168Y-40482987D01*
X34035864Y-40386111D01*
X33783245Y-40385890D01*
X33262369Y-40385984D01*
X33178750Y-40386000D01*
X33020000Y-40544750D01*
X33020000Y-41402000D01*
X34385250Y-41402000D01*
X34544000Y-41243250D01*
X34544110Y-40895245D01*
X34544110Y-42162755D01*
X34544000Y-41814750D01*
X34385250Y-41656000D01*
X33020000Y-41656000D01*
X33020000Y-41676000D01*
X32766000Y-41676000D01*
X32766000Y-41656000D01*
X32746000Y-41656000D01*
X32746000Y-41402000D01*
X32766000Y-41402000D01*
X32766000Y-40544750D01*
X32607250Y-40386000D01*
X32210330Y-40385927D01*
X32210330Y-31373935D01*
X30226000Y-29389605D01*
X30046395Y-29569210D01*
X28241670Y-31373935D01*
X28511221Y-31786257D01*
X29627642Y-32246369D01*
X30835157Y-32244221D01*
X31940779Y-31786257D01*
X32210330Y-31373935D01*
X32210330Y-40385927D01*
X32002755Y-40385890D01*
X31750136Y-40386111D01*
X31516832Y-40482987D01*
X31338359Y-40661771D01*
X31257000Y-40858675D01*
X31257000Y-35433000D01*
X31159185Y-34941252D01*
X30880632Y-34524368D01*
X30463748Y-34245815D01*
X29972000Y-34148000D01*
X29480252Y-34245815D01*
X29063368Y-34524368D01*
X28784815Y-34941252D01*
X28687000Y-35433000D01*
X28687000Y-45593000D01*
X28687000Y-45720000D01*
X28687000Y-47709002D01*
X28784815Y-48200750D01*
X29063368Y-48617634D01*
X29480252Y-48896187D01*
X29972000Y-48994002D01*
X30463748Y-48896187D01*
X30880632Y-48617634D01*
X31159185Y-48200750D01*
X31257000Y-47709002D01*
X31257000Y-47386000D01*
X32893000Y-47386000D01*
X33384748Y-47288185D01*
X33450710Y-47244110D01*
X34034755Y-47244110D01*
X34268229Y-47147641D01*
X34424176Y-46991964D01*
X34430591Y-47024212D01*
X34665789Y-47376211D01*
X34792789Y-47503211D01*
X35144788Y-47738409D01*
X35144789Y-47738409D01*
X35364341Y-47782080D01*
X35364341Y-47782081D01*
X35306111Y-47922316D01*
X35305890Y-48174935D01*
X35305890Y-50344000D01*
X27168807Y-50344000D01*
X27168807Y-48895000D01*
X27062467Y-48360391D01*
X26759635Y-47907172D01*
X26337335Y-47625000D01*
X26759635Y-47342828D01*
X27062467Y-46889609D01*
X27168807Y-46355000D01*
X27062467Y-45820391D01*
X26759635Y-45367172D01*
X26337335Y-45085000D01*
X26759635Y-44802828D01*
X27062467Y-44349609D01*
X27168807Y-43815000D01*
X27062467Y-43280391D01*
X26759635Y-42827172D01*
X26527368Y-42671975D01*
X26626684Y-42671889D01*
X26859988Y-42575013D01*
X27038461Y-42396229D01*
X27134930Y-42162755D01*
X27134930Y-40387245D01*
X27038461Y-40153771D01*
X26859988Y-39974987D01*
X26626684Y-39878111D01*
X26374065Y-39877890D01*
X25685750Y-39878000D01*
X25527000Y-40036750D01*
X25527000Y-41148000D01*
X26976070Y-41148000D01*
X27134820Y-40989250D01*
X27134930Y-40387245D01*
X27134930Y-42162755D01*
X27134820Y-41560750D01*
X26976070Y-41402000D01*
X25527000Y-41402000D01*
X25527000Y-41422000D01*
X25273000Y-41422000D01*
X25273000Y-41402000D01*
X25273000Y-41148000D01*
X25273000Y-40036750D01*
X25114250Y-39878000D01*
X24425935Y-39877890D01*
X24173316Y-39878111D01*
X23940012Y-39974987D01*
X23761539Y-40153771D01*
X23665070Y-40387245D01*
X23665180Y-40989250D01*
X23823930Y-41148000D01*
X25273000Y-41148000D01*
X25273000Y-41402000D01*
X23823930Y-41402000D01*
X23665180Y-41560750D01*
X23665070Y-42162755D01*
X23761539Y-42396229D01*
X23940012Y-42575013D01*
X24173316Y-42671889D01*
X24272631Y-42671975D01*
X24040365Y-42827172D01*
X23737533Y-43280391D01*
X23631193Y-43815000D01*
X23737533Y-44349609D01*
X24040365Y-44802828D01*
X24462664Y-45085000D01*
X24040365Y-45367172D01*
X23737533Y-45820391D01*
X23631193Y-46355000D01*
X23737533Y-46889609D01*
X24040365Y-47342828D01*
X24462664Y-47625000D01*
X24040365Y-47907172D01*
X23737533Y-48360391D01*
X23631193Y-48895000D01*
X23737533Y-49429609D01*
X24040365Y-49882828D01*
X24493584Y-50185660D01*
X25028193Y-50292000D01*
X25771807Y-50292000D01*
X26306416Y-50185660D01*
X26759635Y-49882828D01*
X27062467Y-49429609D01*
X27168807Y-48895000D01*
X27168807Y-50344000D01*
X21463000Y-50344000D01*
X20701000Y-50344000D01*
X19633000Y-50344000D01*
X19633000Y-36206611D01*
X19801365Y-36510350D01*
X19801587Y-36511043D01*
X19980582Y-36722480D01*
X20447003Y-37093488D01*
X20447473Y-37094043D01*
X20693755Y-37220888D01*
X21266658Y-37385165D01*
X21267298Y-37385495D01*
X21543374Y-37408436D01*
X22135531Y-37340968D01*
X22136251Y-37341028D01*
X22400092Y-37256573D01*
X22921350Y-36967634D01*
X22922043Y-36967413D01*
X23133480Y-36788418D01*
X23504488Y-36321996D01*
X23505043Y-36321527D01*
X23631888Y-36075245D01*
X23787133Y-35533841D01*
X24040365Y-35912828D01*
X24272431Y-36067890D01*
X24174425Y-36067890D01*
X23940951Y-36164359D01*
X23762167Y-36342832D01*
X23665291Y-36576136D01*
X23665070Y-36828755D01*
X23665070Y-38352755D01*
X23761539Y-38586229D01*
X23940012Y-38765013D01*
X24173316Y-38861889D01*
X24425935Y-38862110D01*
X26625575Y-38862110D01*
X26859049Y-38765641D01*
X27037833Y-38587168D01*
X27134709Y-38353864D01*
X27134930Y-38101245D01*
X27134930Y-36577245D01*
X27038461Y-36343771D01*
X26859988Y-36164987D01*
X26626684Y-36068111D01*
X26527368Y-36068024D01*
X26759635Y-35912828D01*
X27062467Y-35459609D01*
X27168807Y-34925000D01*
X27062467Y-34390391D01*
X26759635Y-33937172D01*
X26337335Y-33655000D01*
X26759635Y-33372828D01*
X27062467Y-32919609D01*
X27168807Y-32385000D01*
X27062467Y-31850391D01*
X26759635Y-31397172D01*
X26306416Y-31094340D01*
X25771807Y-30988000D01*
X25028193Y-30988000D01*
X24493584Y-31094340D01*
X24040365Y-31397172D01*
X23737533Y-31850391D01*
X23631193Y-32385000D01*
X23737533Y-32919609D01*
X24040365Y-33372828D01*
X24462664Y-33655000D01*
X24040365Y-33937172D01*
X23737533Y-34390391D01*
X23713412Y-34511655D01*
X23667697Y-34368839D01*
X23378706Y-33847485D01*
X23378501Y-33846845D01*
X23199507Y-33635408D01*
X22732998Y-33264331D01*
X22732566Y-33263820D01*
X22486284Y-33136976D01*
X21913277Y-32972668D01*
X21912686Y-32972364D01*
X21636609Y-32949423D01*
X21044344Y-33016903D01*
X21043680Y-33016848D01*
X20779839Y-33101303D01*
X20258485Y-33390293D01*
X20257845Y-33390499D01*
X20046408Y-33569493D01*
X19675331Y-34036001D01*
X19674820Y-34036434D01*
X19633000Y-34117632D01*
X19633000Y-19633000D01*
X20701000Y-19633000D01*
X20828000Y-19633000D01*
X82754031Y-19633000D01*
X82440938Y-19933245D01*
X82439172Y-19934373D01*
X82280473Y-20161439D01*
X82038107Y-20713563D01*
X82036903Y-20715287D01*
X81977179Y-20985801D01*
X81964512Y-21590539D01*
X82012855Y-21863316D01*
X82231767Y-22424796D01*
X82232163Y-22427029D01*
X82381213Y-22660543D01*
X82798327Y-23095504D01*
X82799551Y-23097421D01*
X83026617Y-23256120D01*
X83578433Y-23498351D01*
X83580296Y-23499653D01*
X83850810Y-23559377D01*
X84453321Y-23571998D01*
X84455539Y-23572488D01*
X84728316Y-23524145D01*
X85289796Y-23305232D01*
X85292029Y-23304837D01*
X85525543Y-23155787D01*
X85960504Y-22738672D01*
X85962421Y-22737449D01*
X86031000Y-22639326D01*
X86031000Y-47187418D01*
X86031000Y-47187418D01*
G37*
X86031000Y-47187418D02*
X85632302Y-46813016D01*
X85631948Y-46812520D01*
X85396887Y-46665922D01*
X84833479Y-46453028D01*
X84832962Y-46452706D01*
X84559694Y-46407221D01*
X83957699Y-46426138D01*
X83957100Y-46426039D01*
X83687226Y-46488592D01*
X83138299Y-46736441D01*
X83137704Y-46736580D01*
X83014930Y-46824314D01*
X83014930Y-45594245D01*
X82918461Y-45360771D01*
X82739988Y-45181987D01*
X82506684Y-45085111D01*
X82392318Y-45085010D01*
X82695450Y-44840026D01*
X82957080Y-44359277D01*
X82972040Y-44285070D01*
X82972040Y-43598930D01*
X82957080Y-43524723D01*
X82695450Y-43043974D01*
X82269761Y-42699941D01*
X82175096Y-42672000D01*
X82269761Y-42644059D01*
X82695450Y-42300026D01*
X82957080Y-41819277D01*
X82972040Y-41745070D01*
X82972040Y-41058930D01*
X82957080Y-40984723D01*
X82695450Y-40503974D01*
X82269761Y-40159941D01*
X82175096Y-40132000D01*
X82269761Y-40104059D01*
X82695450Y-39760026D01*
X82957080Y-39279277D01*
X82972040Y-39205070D01*
X82972040Y-38518930D01*
X82957080Y-38444723D01*
X82695450Y-37963974D01*
X82269761Y-37619941D01*
X82175096Y-37592000D01*
X82269761Y-37564059D01*
X82695450Y-37220026D01*
X82957080Y-36739277D01*
X82972040Y-36665070D01*
X82972040Y-35978930D01*
X82957080Y-35904723D01*
X82695450Y-35423974D01*
X82269761Y-35079941D01*
X82175096Y-35052000D01*
X82269761Y-35024059D01*
X82695450Y-34680026D01*
X82957080Y-34199277D01*
X82972040Y-34125070D01*
X82972040Y-33438930D01*
X82957080Y-33364723D01*
X82695450Y-32883974D01*
X82269761Y-32539941D01*
X82175096Y-32512000D01*
X82269761Y-32484059D01*
X82695450Y-32140026D01*
X82957080Y-31659277D01*
X82972040Y-31585070D01*
X82972040Y-30898930D01*
X82957080Y-30824723D01*
X82695450Y-30343974D01*
X82269761Y-29999941D01*
X81990924Y-29917639D01*
X81990924Y-28132520D01*
X81978730Y-27908064D01*
X81978730Y-22595914D01*
X81776145Y-22105620D01*
X81401353Y-21730174D01*
X80911413Y-21526733D01*
X80380914Y-21526270D01*
X79890620Y-21728855D01*
X79515174Y-22103647D01*
X79311733Y-22593587D01*
X79311270Y-23124086D01*
X79513855Y-23614380D01*
X79888647Y-23989826D01*
X80378587Y-24193267D01*
X80909086Y-24193730D01*
X81399380Y-23991145D01*
X81774826Y-23616353D01*
X81978267Y-23126413D01*
X81978730Y-22595914D01*
X81978730Y-27908064D01*
X81962146Y-27602802D01*
X81814798Y-27247072D01*
X81579186Y-27185419D01*
X81399581Y-27365024D01*
X81399581Y-27005814D01*
X81337928Y-26770202D01*
X80837520Y-26594076D01*
X80307802Y-26622854D01*
X79952072Y-26770202D01*
X79890419Y-27005814D01*
X80645000Y-27760395D01*
X81399581Y-27005814D01*
X81399581Y-27365024D01*
X80824605Y-27940000D01*
X81579186Y-28694581D01*
X81814798Y-28632928D01*
X81990924Y-28132520D01*
X81990924Y-29917639D01*
X81744820Y-29845000D01*
X81407000Y-29845000D01*
X81407000Y-31115000D01*
X82849539Y-31115000D01*
X82972040Y-30898930D01*
X82972040Y-31585070D01*
X82849539Y-31369000D01*
X81407000Y-31369000D01*
X81407000Y-32385000D01*
X81407000Y-32639000D01*
X81407000Y-33655000D01*
X82849539Y-33655000D01*
X82972040Y-33438930D01*
X82972040Y-34125070D01*
X82849539Y-33909000D01*
X81407000Y-33909000D01*
X81407000Y-34925000D01*
X81407000Y-35179000D01*
X81407000Y-36195000D01*
X82849539Y-36195000D01*
X82972040Y-35978930D01*
X82972040Y-36665070D01*
X82849539Y-36449000D01*
X81407000Y-36449000D01*
X81407000Y-37465000D01*
X81407000Y-37719000D01*
X81407000Y-38735000D01*
X82849539Y-38735000D01*
X82972040Y-38518930D01*
X82972040Y-39205070D01*
X82849539Y-38989000D01*
X81407000Y-38989000D01*
X81407000Y-40005000D01*
X81407000Y-40259000D01*
X81407000Y-41275000D01*
X82849539Y-41275000D01*
X82972040Y-41058930D01*
X82972040Y-41745070D01*
X82849539Y-41529000D01*
X81407000Y-41529000D01*
X81407000Y-42545000D01*
X81407000Y-42799000D01*
X81407000Y-43815000D01*
X82849539Y-43815000D01*
X82972040Y-43598930D01*
X82972040Y-44285070D01*
X82849539Y-44069000D01*
X81407000Y-44069000D01*
X81407000Y-45243750D01*
X81407000Y-45339000D01*
X81407000Y-46355000D01*
X82856070Y-46355000D01*
X83014820Y-46196250D01*
X83014930Y-45594245D01*
X83014930Y-46824314D01*
X83014830Y-46824386D01*
X83014820Y-46767750D01*
X82856070Y-46609000D01*
X81407000Y-46609000D01*
X81407000Y-47720250D01*
X81565750Y-47879000D01*
X82236918Y-47879107D01*
X82139835Y-48136033D01*
X82094350Y-48409302D01*
X82113265Y-49011193D01*
X82113157Y-49011846D01*
X82175710Y-49281719D01*
X82423517Y-49830553D01*
X82423668Y-49831201D01*
X82584736Y-50056594D01*
X82890792Y-50344000D01*
X81399581Y-50344000D01*
X81399581Y-28874186D01*
X80645000Y-28119605D01*
X80465395Y-28299210D01*
X80465395Y-27940000D01*
X79710814Y-27185419D01*
X79475202Y-27247072D01*
X79299076Y-27747480D01*
X79327854Y-28277198D01*
X79475202Y-28632928D01*
X79710814Y-28694581D01*
X80465395Y-27940000D01*
X80465395Y-28299210D01*
X79890419Y-28874186D01*
X79952072Y-29109798D01*
X80452480Y-29285924D01*
X80982198Y-29257146D01*
X81337928Y-29109798D01*
X81399581Y-28874186D01*
X81399581Y-50344000D01*
X81153000Y-50344000D01*
X81153000Y-47720250D01*
X81153000Y-46609000D01*
X81133000Y-46609000D01*
X81133000Y-46355000D01*
X81153000Y-46355000D01*
X81153000Y-45339000D01*
X81153000Y-45243750D01*
X81153000Y-44069000D01*
X81133000Y-44069000D01*
X81133000Y-43815000D01*
X81153000Y-43815000D01*
X81153000Y-42799000D01*
X81153000Y-42545000D01*
X81153000Y-41529000D01*
X81133000Y-41529000D01*
X81133000Y-41275000D01*
X81153000Y-41275000D01*
X81153000Y-40259000D01*
X81153000Y-40005000D01*
X81153000Y-38989000D01*
X81133000Y-38989000D01*
X81133000Y-38735000D01*
X81153000Y-38735000D01*
X81153000Y-37719000D01*
X81153000Y-37465000D01*
X81153000Y-36449000D01*
X81133000Y-36449000D01*
X81133000Y-36195000D01*
X81153000Y-36195000D01*
X81153000Y-35179000D01*
X81153000Y-34925000D01*
X81153000Y-33909000D01*
X81133000Y-33909000D01*
X81133000Y-33655000D01*
X81153000Y-33655000D01*
X81153000Y-32639000D01*
X81153000Y-32385000D01*
X81153000Y-31369000D01*
X81133000Y-31369000D01*
X81133000Y-31115000D01*
X81153000Y-31115000D01*
X81153000Y-29845000D01*
X80815180Y-29845000D01*
X80290239Y-29999941D01*
X80031772Y-30208827D01*
X79646416Y-29951340D01*
X79111807Y-29845000D01*
X78368193Y-29845000D01*
X77833584Y-29951340D01*
X77470000Y-30194279D01*
X77106416Y-29951340D01*
X76571807Y-29845000D01*
X75828193Y-29845000D01*
X75293584Y-29951340D01*
X74840365Y-30254172D01*
X74537533Y-30707391D01*
X74431193Y-31242000D01*
X74537533Y-31776609D01*
X74840365Y-32229828D01*
X75262664Y-32512000D01*
X74840365Y-32794172D01*
X74537533Y-33247391D01*
X74431193Y-33782000D01*
X74537533Y-34316609D01*
X74840365Y-34769828D01*
X75262664Y-35052000D01*
X74840365Y-35334172D01*
X74537533Y-35787391D01*
X74431193Y-36322000D01*
X74537533Y-36856609D01*
X74840365Y-37309828D01*
X75262664Y-37592000D01*
X74840365Y-37874172D01*
X74537533Y-38327391D01*
X74431193Y-38862000D01*
X74537533Y-39396609D01*
X74840365Y-39849828D01*
X75262664Y-40132000D01*
X74840365Y-40414172D01*
X74537533Y-40867391D01*
X74431193Y-41402000D01*
X74537533Y-41936609D01*
X74840365Y-42389828D01*
X75262664Y-42672000D01*
X74840365Y-42954172D01*
X74537533Y-43407391D01*
X74431193Y-43942000D01*
X74537533Y-44476609D01*
X74840365Y-44929828D01*
X75072431Y-45084890D01*
X74974425Y-45084890D01*
X74740951Y-45181359D01*
X74562167Y-45359832D01*
X74465291Y-45593136D01*
X74465070Y-45845755D01*
X74465070Y-47369755D01*
X74561539Y-47603229D01*
X74740012Y-47782013D01*
X74973316Y-47878889D01*
X75225935Y-47879110D01*
X77425575Y-47879110D01*
X77469820Y-47860828D01*
X77513316Y-47878889D01*
X77765935Y-47879110D01*
X79965575Y-47879110D01*
X80009820Y-47860828D01*
X80053316Y-47878889D01*
X80305935Y-47879110D01*
X80994250Y-47879000D01*
X81153000Y-47720250D01*
X81153000Y-50344000D01*
X74370924Y-50344000D01*
X74370924Y-28132520D01*
X74358730Y-27908064D01*
X74358730Y-22595914D01*
X74156145Y-22105620D01*
X73781353Y-21730174D01*
X73291413Y-21526733D01*
X72760914Y-21526270D01*
X72270620Y-21728855D01*
X71895174Y-22103647D01*
X71691733Y-22593587D01*
X71691270Y-23124086D01*
X71893855Y-23614380D01*
X72268647Y-23989826D01*
X72758587Y-24193267D01*
X73289086Y-24193730D01*
X73779380Y-23991145D01*
X74154826Y-23616353D01*
X74358267Y-23126413D01*
X74358730Y-22595914D01*
X74358730Y-27908064D01*
X74342146Y-27602802D01*
X74194798Y-27247072D01*
X73959186Y-27185419D01*
X73779581Y-27365024D01*
X73779581Y-27005814D01*
X73717928Y-26770202D01*
X73217520Y-26594076D01*
X72687802Y-26622854D01*
X72332072Y-26770202D01*
X72270419Y-27005814D01*
X73025000Y-27760395D01*
X73779581Y-27005814D01*
X73779581Y-27365024D01*
X73204605Y-27940000D01*
X73959186Y-28694581D01*
X74194798Y-28632928D01*
X74370924Y-28132520D01*
X74370924Y-50344000D01*
X73779581Y-50344000D01*
X73779581Y-28874186D01*
X73025000Y-28119605D01*
X72845395Y-28299210D01*
X72845395Y-27940000D01*
X72090814Y-27185419D01*
X71855202Y-27247072D01*
X71818730Y-27350695D01*
X71818730Y-23865914D01*
X71616145Y-23375620D01*
X71241353Y-23000174D01*
X70751413Y-22796733D01*
X70220914Y-22796270D01*
X69730620Y-22998855D01*
X69355174Y-23373647D01*
X69151733Y-23863587D01*
X69151270Y-24394086D01*
X69353855Y-24884380D01*
X69728647Y-25259826D01*
X70218587Y-25463267D01*
X70749086Y-25463730D01*
X71239380Y-25261145D01*
X71614826Y-24886353D01*
X71818267Y-24396413D01*
X71818730Y-23865914D01*
X71818730Y-27350695D01*
X71679076Y-27747480D01*
X71707854Y-28277198D01*
X71855202Y-28632928D01*
X72090814Y-28694581D01*
X72845395Y-27940000D01*
X72845395Y-28299210D01*
X72270419Y-28874186D01*
X72332072Y-29109798D01*
X72832480Y-29285924D01*
X73362198Y-29257146D01*
X73717928Y-29109798D01*
X73779581Y-28874186D01*
X73779581Y-50344000D01*
X72084924Y-50344000D01*
X72084924Y-49468520D01*
X72056146Y-48938802D01*
X71908798Y-48583072D01*
X71673186Y-48521419D01*
X70918605Y-49276000D01*
X71673186Y-50030581D01*
X71908798Y-49968928D01*
X72084924Y-49468520D01*
X72084924Y-50344000D01*
X71458565Y-50344000D01*
X71493581Y-50210186D01*
X70739000Y-49455605D01*
X69984419Y-50210186D01*
X70019434Y-50344000D01*
X66525605Y-50344000D01*
X65591715Y-49410110D01*
X66140755Y-49410110D01*
X66374229Y-49313641D01*
X66553013Y-49135168D01*
X66649889Y-48901864D01*
X66650110Y-48649245D01*
X66650110Y-47649245D01*
X66622851Y-47583273D01*
X67304789Y-48265211D01*
X67656788Y-48500409D01*
X67656789Y-48500409D01*
X68072000Y-48583000D01*
X69569477Y-48583000D01*
X69569202Y-48583072D01*
X69393076Y-49083480D01*
X69421854Y-49613198D01*
X69569202Y-49968928D01*
X69804814Y-50030581D01*
X70559395Y-49276000D01*
X70545252Y-49261857D01*
X70724857Y-49082252D01*
X70739000Y-49096395D01*
X71493581Y-48341814D01*
X71453973Y-48190448D01*
X71506211Y-48138211D01*
X71741409Y-47786212D01*
X71741409Y-47786211D01*
X71824000Y-47371000D01*
X71824000Y-42457100D01*
X71868826Y-42412353D01*
X72072267Y-41922413D01*
X72072730Y-41391914D01*
X71870145Y-40901620D01*
X71495353Y-40526174D01*
X71005413Y-40322733D01*
X70685967Y-40322454D01*
X71252210Y-39756212D01*
X71267803Y-39732874D01*
X71399622Y-39601286D01*
X71471679Y-39427752D01*
X71487409Y-39404212D01*
X71492884Y-39376687D01*
X71564313Y-39204668D01*
X71564476Y-39016768D01*
X71570000Y-38989001D01*
X71564524Y-38961475D01*
X71564687Y-38775216D01*
X71492931Y-38601555D01*
X71487409Y-38573790D01*
X71471818Y-38550456D01*
X71400689Y-38378311D01*
X71267936Y-38245327D01*
X71252210Y-38221790D01*
X71228878Y-38206200D01*
X71097286Y-38074378D01*
X70923747Y-38002317D01*
X70900210Y-37986591D01*
X70872688Y-37981116D01*
X70700668Y-37909687D01*
X70512766Y-37909523D01*
X70484999Y-37904000D01*
X70457473Y-37909475D01*
X70271216Y-37909313D01*
X70097557Y-37981067D01*
X70069788Y-37986591D01*
X70046451Y-38002183D01*
X69874311Y-38073311D01*
X69741331Y-38206058D01*
X69717788Y-38221790D01*
X69278453Y-38661124D01*
X69278730Y-38343914D01*
X69278730Y-30723914D01*
X69076145Y-30233620D01*
X68701353Y-29858174D01*
X68211413Y-29654733D01*
X67680914Y-29654270D01*
X67232037Y-29839741D01*
X67385924Y-29402520D01*
X67357146Y-28872802D01*
X67209798Y-28517072D01*
X66974186Y-28455419D01*
X66794581Y-28635024D01*
X66794581Y-28275814D01*
X66732928Y-28040202D01*
X66232520Y-27864076D01*
X65702802Y-27892854D01*
X65347072Y-28040202D01*
X65285419Y-28275814D01*
X66040000Y-29030395D01*
X66794581Y-28275814D01*
X66794581Y-28635024D01*
X66219605Y-29210000D01*
X66233747Y-29224142D01*
X66054142Y-29403747D01*
X66040000Y-29389605D01*
X65285419Y-30144186D01*
X65347072Y-30379798D01*
X65847480Y-30555924D01*
X66377198Y-30527146D01*
X66732928Y-30379798D01*
X66794580Y-30144188D01*
X66794581Y-30144189D01*
X66848635Y-30198243D01*
X66815174Y-30231647D01*
X66794581Y-30281240D01*
X66611733Y-30721587D01*
X66611270Y-31252086D01*
X66813855Y-31742380D01*
X67188647Y-32117826D01*
X67678587Y-32321267D01*
X68209086Y-32321730D01*
X68699380Y-32119145D01*
X69074826Y-31744353D01*
X69278267Y-31254413D01*
X69278730Y-30723914D01*
X69278730Y-38343914D01*
X69076145Y-37853620D01*
X68701353Y-37478174D01*
X68211413Y-37274733D01*
X67680914Y-37274270D01*
X67190620Y-37476855D01*
X66815174Y-37851647D01*
X66650110Y-38249164D01*
X66650110Y-37649245D01*
X66553641Y-37415771D01*
X66413026Y-37274911D01*
X66553013Y-37135168D01*
X66649889Y-36901864D01*
X66650110Y-36649245D01*
X66650110Y-35649245D01*
X66553641Y-35415771D01*
X66413026Y-35274911D01*
X66553013Y-35135168D01*
X66649889Y-34901864D01*
X66649894Y-34896017D01*
X66787409Y-34690212D01*
X66870000Y-34275000D01*
X66787409Y-33859788D01*
X66650110Y-33654305D01*
X66650110Y-33649245D01*
X66553641Y-33415771D01*
X66375168Y-33236987D01*
X66141864Y-33140111D01*
X65889245Y-33139890D01*
X65281312Y-33139890D01*
X64585000Y-32443578D01*
X64585000Y-30011100D01*
X64629826Y-29966353D01*
X64763314Y-29644877D01*
X64870202Y-29902928D01*
X65105814Y-29964581D01*
X65860395Y-29210000D01*
X65105814Y-28455419D01*
X64870202Y-28517072D01*
X64771917Y-28796316D01*
X64631145Y-28455620D01*
X64256353Y-28080174D01*
X64198730Y-28056246D01*
X64198730Y-23865914D01*
X63996145Y-23375620D01*
X63621353Y-23000174D01*
X63131413Y-22796733D01*
X62600914Y-22796270D01*
X62110620Y-22998855D01*
X61735174Y-23373647D01*
X61531733Y-23863587D01*
X61531270Y-24394086D01*
X61733855Y-24884380D01*
X62108647Y-25259826D01*
X62598587Y-25463267D01*
X63129086Y-25463730D01*
X63619380Y-25261145D01*
X63994826Y-24886353D01*
X64198267Y-24396413D01*
X64198730Y-23865914D01*
X64198730Y-28056246D01*
X63766413Y-27876733D01*
X63235914Y-27876270D01*
X62745620Y-28078855D01*
X62370174Y-28453647D01*
X62166733Y-28943587D01*
X62166270Y-29474086D01*
X62368855Y-29964380D01*
X62415000Y-30010605D01*
X62415000Y-32893000D01*
X62497591Y-33308212D01*
X62532082Y-33359831D01*
X62532082Y-33359832D01*
X62476987Y-33414832D01*
X62380111Y-33648136D01*
X62379890Y-33900755D01*
X62379890Y-34900755D01*
X62476359Y-35134229D01*
X62532032Y-35190000D01*
X62124421Y-35190000D01*
X61918000Y-34983578D01*
X61918000Y-34163000D01*
X61835409Y-33747789D01*
X61835409Y-33747788D01*
X61600211Y-33395789D01*
X61346211Y-33141789D01*
X61322873Y-33126195D01*
X61191286Y-32994378D01*
X61087000Y-32951074D01*
X61087000Y-23866807D01*
X61087000Y-23123193D01*
X60980660Y-22588584D01*
X60677828Y-22135365D01*
X60224609Y-21832533D01*
X59690000Y-21726193D01*
X59155391Y-21832533D01*
X58702172Y-22135365D01*
X58546975Y-22367631D01*
X58546889Y-22268316D01*
X58450013Y-22035012D01*
X58271229Y-21856539D01*
X58037755Y-21760070D01*
X57435750Y-21760180D01*
X57277000Y-21918930D01*
X57277000Y-23368000D01*
X57297000Y-23368000D01*
X57297000Y-23622000D01*
X57277000Y-23622000D01*
X57277000Y-25071070D01*
X57435750Y-25229820D01*
X58037755Y-25229930D01*
X58271229Y-25133461D01*
X58450013Y-24954988D01*
X58546889Y-24721684D01*
X58546975Y-24622368D01*
X58702172Y-24854635D01*
X59155391Y-25157467D01*
X59690000Y-25263807D01*
X60224609Y-25157467D01*
X60677828Y-24854635D01*
X60980660Y-24401416D01*
X61087000Y-23866807D01*
X61087000Y-32951074D01*
X61017750Y-32922319D01*
X60994211Y-32906591D01*
X60966688Y-32901116D01*
X60794668Y-32829687D01*
X60606767Y-32829523D01*
X60579000Y-32824000D01*
X60551474Y-32829475D01*
X60365216Y-32829313D01*
X60191556Y-32901067D01*
X60163789Y-32906591D01*
X60140454Y-32922182D01*
X60140000Y-32922370D01*
X60140000Y-30011100D01*
X60184826Y-29966353D01*
X60388267Y-29476413D01*
X60388730Y-28945914D01*
X60186145Y-28455620D01*
X59811353Y-28080174D01*
X59321413Y-27876733D01*
X58790914Y-27876270D01*
X58300620Y-28078855D01*
X57925174Y-28453647D01*
X57721733Y-28943587D01*
X57721270Y-29474086D01*
X57923855Y-29964380D01*
X57970000Y-30010605D01*
X57970000Y-42926000D01*
X58052591Y-43341212D01*
X58287789Y-43693211D01*
X59636789Y-45042211D01*
X59988788Y-45277409D01*
X59988789Y-45277409D01*
X60404000Y-45360000D01*
X62531914Y-45360000D01*
X62476987Y-45414832D01*
X62380111Y-45648136D01*
X62379890Y-45900755D01*
X62379890Y-46900755D01*
X62476359Y-47134229D01*
X62532032Y-47190000D01*
X57023000Y-47190000D01*
X57023000Y-25071070D01*
X57023000Y-23622000D01*
X57023000Y-23368000D01*
X57023000Y-21918930D01*
X56864250Y-21760180D01*
X56262245Y-21760070D01*
X56028771Y-21856539D01*
X55849987Y-22035012D01*
X55753111Y-22268316D01*
X55752890Y-22520935D01*
X55753000Y-23209250D01*
X55911750Y-23368000D01*
X57023000Y-23368000D01*
X57023000Y-23622000D01*
X55911750Y-23622000D01*
X55753000Y-23780750D01*
X55752890Y-24469065D01*
X55753111Y-24721684D01*
X55849987Y-24954988D01*
X56028771Y-25133461D01*
X56262245Y-25229930D01*
X56864250Y-25229820D01*
X57023000Y-25071070D01*
X57023000Y-47190000D01*
X56725422Y-47190000D01*
X56584000Y-47048578D01*
X56584000Y-33401000D01*
X56501409Y-32985789D01*
X56501409Y-32985788D01*
X56266211Y-32633789D01*
X54425000Y-30792578D01*
X54425000Y-24296100D01*
X54469826Y-24251353D01*
X54673267Y-23761413D01*
X54673730Y-23230914D01*
X54471145Y-22740620D01*
X54096353Y-22365174D01*
X53606413Y-22161733D01*
X53075914Y-22161270D01*
X52585620Y-22363855D01*
X52210174Y-22738647D01*
X52006733Y-23228587D01*
X52006270Y-23759086D01*
X52208855Y-24249380D01*
X52255000Y-24295605D01*
X52255000Y-28143932D01*
X52191353Y-28080174D01*
X51701413Y-27876733D01*
X51170914Y-27876270D01*
X50680620Y-28078855D01*
X50305174Y-28453647D01*
X50101733Y-28943587D01*
X50101582Y-29116215D01*
X50072212Y-29096591D01*
X49657000Y-29014000D01*
X45616953Y-29014000D01*
X46093380Y-28817145D01*
X46468826Y-28442353D01*
X46672267Y-27952413D01*
X46672404Y-27795049D01*
X46672404Y-27795048D01*
X46722409Y-27720212D01*
X46722409Y-27720211D01*
X46805000Y-27305000D01*
X46805000Y-24296100D01*
X46849826Y-24251353D01*
X47053267Y-23761413D01*
X47053730Y-23230914D01*
X46851145Y-22740620D01*
X46476353Y-22365174D01*
X45986413Y-22161733D01*
X45455914Y-22161270D01*
X44965620Y-22363855D01*
X44590174Y-22738647D01*
X44386733Y-23228587D01*
X44386270Y-23759086D01*
X44588855Y-24249380D01*
X44635000Y-24295605D01*
X44635000Y-26534038D01*
X44584620Y-26554855D01*
X44538394Y-26601000D01*
X43700143Y-26601000D01*
X43354842Y-26601000D01*
X43386225Y-26569617D01*
X43271214Y-26454606D01*
X43513396Y-26385142D01*
X43700143Y-25861696D01*
X43672360Y-25306631D01*
X43513396Y-24922858D01*
X43271212Y-24853393D01*
X43091607Y-25032998D01*
X43091607Y-24673788D01*
X43022142Y-24431604D01*
X42498696Y-24244857D01*
X41943631Y-24272640D01*
X41559858Y-24431604D01*
X41490393Y-24673788D01*
X42291000Y-25474395D01*
X43091607Y-24673788D01*
X43091607Y-25032998D01*
X42470605Y-25654000D01*
X42484747Y-25668142D01*
X42305142Y-25847747D01*
X42291000Y-25833605D01*
X42276857Y-25847747D01*
X42097252Y-25668142D01*
X42111395Y-25654000D01*
X41310788Y-24853393D01*
X41148110Y-24900053D01*
X41148110Y-24766245D01*
X41051641Y-24532771D01*
X40873168Y-24353987D01*
X40639864Y-24257111D01*
X40387245Y-24256890D01*
X38863245Y-24256890D01*
X38629771Y-24353359D01*
X38450987Y-24531832D01*
X38354111Y-24765136D01*
X38353890Y-25017755D01*
X38353890Y-26541755D01*
X38450359Y-26775229D01*
X38628832Y-26954013D01*
X38862136Y-27050889D01*
X39114755Y-27051110D01*
X39613468Y-27051110D01*
X37967789Y-28696789D01*
X37732591Y-29048788D01*
X37650000Y-29464000D01*
X37650000Y-40190578D01*
X37096143Y-40744435D01*
X37096143Y-34497696D01*
X37071410Y-34003565D01*
X37071410Y-26404545D01*
X37071410Y-21603945D01*
X36974941Y-21370471D01*
X36796468Y-21191687D01*
X36563164Y-21094811D01*
X36310545Y-21094590D01*
X31509945Y-21094590D01*
X31276471Y-21191059D01*
X31097687Y-21369532D01*
X31000811Y-21602836D01*
X31000590Y-21855455D01*
X31000590Y-26246261D01*
X30976369Y-26236278D01*
X30824358Y-26173631D01*
X30164412Y-26174804D01*
X30103936Y-26114328D01*
X30516257Y-25844779D01*
X30976369Y-24728358D01*
X30974221Y-23520843D01*
X30516257Y-22415221D01*
X30103935Y-22145670D01*
X29924330Y-22325275D01*
X29924330Y-21966065D01*
X29654779Y-21553743D01*
X28538358Y-21093631D01*
X27330843Y-21095779D01*
X26225221Y-21553743D01*
X25955670Y-21966065D01*
X27940000Y-23950395D01*
X29924330Y-21966065D01*
X29924330Y-22325275D01*
X28119605Y-24130000D01*
X28133747Y-24144142D01*
X27954142Y-24323747D01*
X27940000Y-24309605D01*
X27760395Y-24489210D01*
X27760395Y-24130000D01*
X25776065Y-22145670D01*
X25363743Y-22415221D01*
X24903631Y-23531642D01*
X24905779Y-24739157D01*
X25363743Y-25844779D01*
X25776065Y-26114330D01*
X27760395Y-24130000D01*
X27760395Y-24489210D01*
X25955670Y-26293935D01*
X26225221Y-26706257D01*
X27341642Y-27166369D01*
X28001586Y-27165194D01*
X28062063Y-27225671D01*
X27649743Y-27495221D01*
X27189631Y-28611642D01*
X27191779Y-29819157D01*
X27649743Y-30924779D01*
X28062065Y-31194330D01*
X30046395Y-29210000D01*
X30032252Y-29195857D01*
X30211857Y-29016252D01*
X30226000Y-29030395D01*
X30240142Y-29016252D01*
X30419747Y-29195857D01*
X30405605Y-29210000D01*
X32389935Y-31194330D01*
X32802257Y-30924779D01*
X33262369Y-29808358D01*
X33260221Y-28600843D01*
X32802257Y-27495221D01*
X32389936Y-27225671D01*
X32450198Y-27165410D01*
X36562055Y-27165410D01*
X36795529Y-27068941D01*
X36974313Y-26890468D01*
X37071189Y-26657164D01*
X37071410Y-26404545D01*
X37071410Y-34003565D01*
X37068360Y-33942631D01*
X36909396Y-33558858D01*
X36667212Y-33489393D01*
X36487607Y-33668998D01*
X36487607Y-33309788D01*
X36418142Y-33067604D01*
X35894696Y-32880857D01*
X35339631Y-32908640D01*
X34955858Y-33067604D01*
X34886393Y-33309788D01*
X35687000Y-34110395D01*
X36487607Y-33309788D01*
X36487607Y-33668998D01*
X35866605Y-34290000D01*
X36667212Y-35090607D01*
X36909396Y-35021142D01*
X37096143Y-34497696D01*
X37096143Y-40744435D01*
X37084110Y-40756468D01*
X37084110Y-37466245D01*
X37084110Y-35942245D01*
X36987641Y-35708771D01*
X36809168Y-35529987D01*
X36575864Y-35433111D01*
X36440916Y-35432992D01*
X36487607Y-35270212D01*
X35687000Y-34469605D01*
X35507395Y-34649210D01*
X35507395Y-34290000D01*
X34706788Y-33489393D01*
X34464604Y-33558858D01*
X34277857Y-34082304D01*
X34305640Y-34637369D01*
X34464604Y-35021142D01*
X34706788Y-35090607D01*
X35507395Y-34290000D01*
X35507395Y-34649210D01*
X34886393Y-35270212D01*
X34933053Y-35432890D01*
X34799245Y-35432890D01*
X34565771Y-35529359D01*
X34386987Y-35707832D01*
X34290111Y-35941136D01*
X34289890Y-36193755D01*
X34289890Y-37717755D01*
X34386359Y-37951229D01*
X34564832Y-38130013D01*
X34798136Y-38226889D01*
X35050755Y-38227110D01*
X36574755Y-38227110D01*
X36808229Y-38130641D01*
X36987013Y-37952168D01*
X37083889Y-37718864D01*
X37084110Y-37466245D01*
X37084110Y-40756468D01*
X35110578Y-42730000D01*
X34175276Y-42730000D01*
X34035864Y-42672111D01*
X33908982Y-42672000D01*
X34035864Y-42671889D01*
X34269168Y-42575013D01*
X34447641Y-42396229D01*
X34544110Y-42162755D01*
X34544110Y-40895245D01*
X34447641Y-40661771D01*
X34269168Y-40482987D01*
X34035864Y-40386111D01*
X33783245Y-40385890D01*
X33262369Y-40385984D01*
X33178750Y-40386000D01*
X33020000Y-40544750D01*
X33020000Y-41402000D01*
X34385250Y-41402000D01*
X34544000Y-41243250D01*
X34544110Y-40895245D01*
X34544110Y-42162755D01*
X34544000Y-41814750D01*
X34385250Y-41656000D01*
X33020000Y-41656000D01*
X33020000Y-41676000D01*
X32766000Y-41676000D01*
X32766000Y-41656000D01*
X32746000Y-41656000D01*
X32746000Y-41402000D01*
X32766000Y-41402000D01*
X32766000Y-40544750D01*
X32607250Y-40386000D01*
X32210330Y-40385927D01*
X32210330Y-31373935D01*
X30226000Y-29389605D01*
X30046395Y-29569210D01*
X28241670Y-31373935D01*
X28511221Y-31786257D01*
X29627642Y-32246369D01*
X30835157Y-32244221D01*
X31940779Y-31786257D01*
X32210330Y-31373935D01*
X32210330Y-40385927D01*
X32002755Y-40385890D01*
X31750136Y-40386111D01*
X31516832Y-40482987D01*
X31338359Y-40661771D01*
X31257000Y-40858675D01*
X31257000Y-35433000D01*
X31159185Y-34941252D01*
X30880632Y-34524368D01*
X30463748Y-34245815D01*
X29972000Y-34148000D01*
X29480252Y-34245815D01*
X29063368Y-34524368D01*
X28784815Y-34941252D01*
X28687000Y-35433000D01*
X28687000Y-45593000D01*
X28687000Y-45720000D01*
X28687000Y-47709002D01*
X28784815Y-48200750D01*
X29063368Y-48617634D01*
X29480252Y-48896187D01*
X29972000Y-48994002D01*
X30463748Y-48896187D01*
X30880632Y-48617634D01*
X31159185Y-48200750D01*
X31257000Y-47709002D01*
X31257000Y-47386000D01*
X32893000Y-47386000D01*
X33384748Y-47288185D01*
X33450710Y-47244110D01*
X34034755Y-47244110D01*
X34268229Y-47147641D01*
X34424176Y-46991964D01*
X34430591Y-47024212D01*
X34665789Y-47376211D01*
X34792789Y-47503211D01*
X35144788Y-47738409D01*
X35144789Y-47738409D01*
X35364341Y-47782080D01*
X35364341Y-47782081D01*
X35306111Y-47922316D01*
X35305890Y-48174935D01*
X35305890Y-50344000D01*
X27168807Y-50344000D01*
X27168807Y-48895000D01*
X27062467Y-48360391D01*
X26759635Y-47907172D01*
X26337335Y-47625000D01*
X26759635Y-47342828D01*
X27062467Y-46889609D01*
X27168807Y-46355000D01*
X27062467Y-45820391D01*
X26759635Y-45367172D01*
X26337335Y-45085000D01*
X26759635Y-44802828D01*
X27062467Y-44349609D01*
X27168807Y-43815000D01*
X27062467Y-43280391D01*
X26759635Y-42827172D01*
X26527368Y-42671975D01*
X26626684Y-42671889D01*
X26859988Y-42575013D01*
X27038461Y-42396229D01*
X27134930Y-42162755D01*
X27134930Y-40387245D01*
X27038461Y-40153771D01*
X26859988Y-39974987D01*
X26626684Y-39878111D01*
X26374065Y-39877890D01*
X25685750Y-39878000D01*
X25527000Y-40036750D01*
X25527000Y-41148000D01*
X26976070Y-41148000D01*
X27134820Y-40989250D01*
X27134930Y-40387245D01*
X27134930Y-42162755D01*
X27134820Y-41560750D01*
X26976070Y-41402000D01*
X25527000Y-41402000D01*
X25527000Y-41422000D01*
X25273000Y-41422000D01*
X25273000Y-41402000D01*
X25273000Y-41148000D01*
X25273000Y-40036750D01*
X25114250Y-39878000D01*
X24425935Y-39877890D01*
X24173316Y-39878111D01*
X23940012Y-39974987D01*
X23761539Y-40153771D01*
X23665070Y-40387245D01*
X23665180Y-40989250D01*
X23823930Y-41148000D01*
X25273000Y-41148000D01*
X25273000Y-41402000D01*
X23823930Y-41402000D01*
X23665180Y-41560750D01*
X23665070Y-42162755D01*
X23761539Y-42396229D01*
X23940012Y-42575013D01*
X24173316Y-42671889D01*
X24272631Y-42671975D01*
X24040365Y-42827172D01*
X23737533Y-43280391D01*
X23631193Y-43815000D01*
X23737533Y-44349609D01*
X24040365Y-44802828D01*
X24462664Y-45085000D01*
X24040365Y-45367172D01*
X23737533Y-45820391D01*
X23631193Y-46355000D01*
X23737533Y-46889609D01*
X24040365Y-47342828D01*
X24462664Y-47625000D01*
X24040365Y-47907172D01*
X23737533Y-48360391D01*
X23631193Y-48895000D01*
X23737533Y-49429609D01*
X24040365Y-49882828D01*
X24493584Y-50185660D01*
X25028193Y-50292000D01*
X25771807Y-50292000D01*
X26306416Y-50185660D01*
X26759635Y-49882828D01*
X27062467Y-49429609D01*
X27168807Y-48895000D01*
X27168807Y-50344000D01*
X21463000Y-50344000D01*
X20701000Y-50344000D01*
X19633000Y-50344000D01*
X19633000Y-36206611D01*
X19801365Y-36510350D01*
X19801587Y-36511043D01*
X19980582Y-36722480D01*
X20447003Y-37093488D01*
X20447473Y-37094043D01*
X20693755Y-37220888D01*
X21266658Y-37385165D01*
X21267298Y-37385495D01*
X21543374Y-37408436D01*
X22135531Y-37340968D01*
X22136251Y-37341028D01*
X22400092Y-37256573D01*
X22921350Y-36967634D01*
X22922043Y-36967413D01*
X23133480Y-36788418D01*
X23504488Y-36321996D01*
X23505043Y-36321527D01*
X23631888Y-36075245D01*
X23787133Y-35533841D01*
X24040365Y-35912828D01*
X24272431Y-36067890D01*
X24174425Y-36067890D01*
X23940951Y-36164359D01*
X23762167Y-36342832D01*
X23665291Y-36576136D01*
X23665070Y-36828755D01*
X23665070Y-38352755D01*
X23761539Y-38586229D01*
X23940012Y-38765013D01*
X24173316Y-38861889D01*
X24425935Y-38862110D01*
X26625575Y-38862110D01*
X26859049Y-38765641D01*
X27037833Y-38587168D01*
X27134709Y-38353864D01*
X27134930Y-38101245D01*
X27134930Y-36577245D01*
X27038461Y-36343771D01*
X26859988Y-36164987D01*
X26626684Y-36068111D01*
X26527368Y-36068024D01*
X26759635Y-35912828D01*
X27062467Y-35459609D01*
X27168807Y-34925000D01*
X27062467Y-34390391D01*
X26759635Y-33937172D01*
X26337335Y-33655000D01*
X26759635Y-33372828D01*
X27062467Y-32919609D01*
X27168807Y-32385000D01*
X27062467Y-31850391D01*
X26759635Y-31397172D01*
X26306416Y-31094340D01*
X25771807Y-30988000D01*
X25028193Y-30988000D01*
X24493584Y-31094340D01*
X24040365Y-31397172D01*
X23737533Y-31850391D01*
X23631193Y-32385000D01*
X23737533Y-32919609D01*
X24040365Y-33372828D01*
X24462664Y-33655000D01*
X24040365Y-33937172D01*
X23737533Y-34390391D01*
X23713412Y-34511655D01*
X23667697Y-34368839D01*
X23378706Y-33847485D01*
X23378501Y-33846845D01*
X23199507Y-33635408D01*
X22732998Y-33264331D01*
X22732566Y-33263820D01*
X22486284Y-33136976D01*
X21913277Y-32972668D01*
X21912686Y-32972364D01*
X21636609Y-32949423D01*
X21044344Y-33016903D01*
X21043680Y-33016848D01*
X20779839Y-33101303D01*
X20258485Y-33390293D01*
X20257845Y-33390499D01*
X20046408Y-33569493D01*
X19675331Y-34036001D01*
X19674820Y-34036434D01*
X19633000Y-34117632D01*
X19633000Y-19633000D01*
X20701000Y-19633000D01*
X20828000Y-19633000D01*
X82754031Y-19633000D01*
X82440938Y-19933245D01*
X82439172Y-19934373D01*
X82280473Y-20161439D01*
X82038107Y-20713563D01*
X82036903Y-20715287D01*
X81977179Y-20985801D01*
X81964512Y-21590539D01*
X82012855Y-21863316D01*
X82231767Y-22424796D01*
X82232163Y-22427029D01*
X82381213Y-22660543D01*
X82798327Y-23095504D01*
X82799551Y-23097421D01*
X83026617Y-23256120D01*
X83578433Y-23498351D01*
X83580296Y-23499653D01*
X83850810Y-23559377D01*
X84453321Y-23571998D01*
X84455539Y-23572488D01*
X84728316Y-23524145D01*
X85289796Y-23305232D01*
X85292029Y-23304837D01*
X85525543Y-23155787D01*
X85960504Y-22738672D01*
X85962421Y-22737449D01*
X86031000Y-22639326D01*
X86031000Y-47187418D01*
M02*
